<?xml version="1.0" encoding="utf-8"?>
<!-- Generator: Adobe Illustrator 19.1.0, SVG Export Plug-In . SVG Version: 6.00 Build 0)  -->
<svg version="1.1" id="Layer_2" xmlns="http://www.w3.org/2000/svg" xmlns:xlink="http://www.w3.org/1999/xlink" x="0px" y="0px"
	 viewBox="-89 -25 200 200" style="enable-background:new -89 -25 200 200;" xml:space="preserve">
<style type="text/css">
	.st0{fill:#FFFFFF;}
	.st1{fill:#0033A0;}
	.st2{fill:#BA1127;}
	.st3{fill:#8D734A;}
	.st4{fill:#00953A;}
	.st5{stroke:#000000;stroke-width:0.3417;}
	.st6{fill:none;stroke:#000000;stroke-width:1.3667;}
	.st7{fill:none;stroke:#000000;stroke-width:1.3667;stroke-linejoin:round;}
</style>
<path class="st0" d="M-39,17.7v39.8c0,48.9,48.8,80,49.3,80.3c0,0,0.2,0.1,0.2,0.1c0.1,0,0.4-0.2,0.4-0.2c8.3-5.4,49.7-34.9,49.7-80
	l0-40.1H-39z"/>
<path class="st1" d="M50.6,96.2c0,0-3.9,8.7-14.1,19.8L11.1,90.5l-25.5,25.8c0,0-8.7-8.9-14.9-21.1L11,55.8L50.6,96.2z"/>
<polygon class="st2" points="60.9,49.6 -39,49.6 -39,17.8 61,17.8 "/>
<path class="st0" d="M48.3,24.1C48.3,24.1,48.3,24.1,48.3,24.1c-0.1,0-1.6,0.1-1.6,0.1c0,0-1,0.3-1,0.3c-0.5,0.1-1,0.1-1.3,0.4
	c-0.2,0.2-0.4,0.2-0.7,0.2l-1.4-0.4c0,0-1.6-0.4-1.6-0.4c-0.5,0-1.4,0.1-3.4,0.1c0,0-4.9,0-4.9,0c-0.8,0-1.2,0-1.4,0.3
	c0.1,0.4,0.1,1.3,0.1,3.1l0,0c0,0-0.1,0.4-0.1,0.4l-0.2,0.3c0,0-0.5,0.3-0.5,0.3c0,0-0.3,0-0.3,0c0,0-0.7,0-0.8,0c0,0-0.1,0-0.1,0
	c0,0-0.2,0-0.4,0c0,0-0.2,0.4-0.2,0.4c0,0,0,0,0,0c0,0.1,0,0.3,0,0.3l0,0c0,0.3,0.1,0.6,0.3,0.8c0.2,0,0.4,0,0.6,0
	c0.4,0,1,0,1.5,0.3c0.2,0.1,0.3,0.3,0.3,0.6v4.7L31,36.3c-0.5,0.5-1.1,0.5-1.6,0.5c-0.5,0-0.7,0.1-0.8,0.2c-0.1,0.4-0.2,0.7,0,1
	c0.1,0.1,0.4,0.1,1,0.1c0,0,0.9,0,0.9,0c0.2,0,0.4,0.1,0.5,0.4c0.3,0.5,0.3,1,0.3,1.4c0,0,0,0.5,0,0.5c0,0,0,1.2,0,1.2l-0.1,1
	c0,0-0.1,0.6-0.1,0.6c0,0.1,0.1,0.2,0.1,0.2c0.3,0,0.9-0.1,2-0.1l2.1-0.1c0.8,0.2,1.4,0.1,2.1,0c0,0,1.6-0.1,1.6-0.1
	c0.1,0,0.8,0.1,0.8,0.1c0,0,0.7,0.1,0.7,0.1c0,0,0,0,0,0c0.5-0.2,1.1-0.2,1.6-0.1l0.2,0.1l0.4,0.3c0.2,0.3,0.5,0.7,1,0.9
	c0.1-0.1,0.3-0.1,0.3-0.2c0.1-0.1,0.1-0.2,0.1-0.3c0-0.1,0-0.2,0-0.2c0.4-0.7,1-0.7,1.5-0.7c0,0,0.3,0,0.3,0c0,0,0.6,0,0.6,0
	c0.5,0,1.1,0,1.7,0.2c-0.1,0,0.3,0,0.3,0c0,0,0.2,0,0.2,0c-0.1,0-0.1,0.1-0.2,0.1l0.5-0.2l0.6,0c0,0,1.1,0,1.1,0h0c0,0,0,0,0,0
	c0.2,0,0.5,0,1.1,0.1c0,0,0.8,0.1,0.8,0.1c0,0,1.2-0.1,1.2-0.1c1,0,1.1-0.1,1.1-0.3c0-0.2,0-0.7,0-1.9l0-2l0.2-0.5l0.2-0.3l0.5-0.2
	c0,0,1.6-0.2,1.7-0.2c0,0,0.1-0.3,0.1-0.3c0,0,0.1-0.1,0.1-0.2c0-0.1-0.1-0.2-0.1-0.2s0-0.3,0-0.3c0,0,0-0.1-0.1-0.1
	c-0.1-0.1-0.2-0.2-0.7-0.2c0,0-0.4,0-0.4,0c-0.3,0.1-1.1,0.2-1.5-0.5c0,0-0.1-0.3-0.1-0.3c0,0,0-4.6,0-4.6c0-0.2,0.1-0.5,0.3-0.6
	l0.2-0.1c0,0,0.4-0.1,0.4-0.1c0.9,0.1,1.5-0.1,1.7-0.3c0-0.1,0-0.1,0-0.2c0,0,0,0,0,0c0,0,0-0.1,0-0.1c0-0.6,0-0.9-0.2-1.2
	c-0.1,0-0.6,0-0.9,0c0,0-0.6,0-0.6,0l-0.3-0.1c-0.7-0.4-0.6-1.2-0.6-1.6c0,0,0-0.3,0-0.3c0,0,0-1.4,0-1.4c0,0,0-0.6,0-0.9
	c-0.2-0.2-0.6-0.2-1.2-0.1c0,0-0.9,0-0.9,0s-0.3-0.1-0.4-0.1c-0.2,0-1.4,0.1-1.4,0.1c0,0-1.3,0.1-1.3,0.1c-0.1,0-0.8-0.1-0.8-0.1
	C48.8,24.1,48.5,24,48.3,24.1z M57.8,37.9L57.8,37.9L57.8,37.9z"/>
<path class="st0" d="M7.4,24.2l-0.7,0c0,0-1,0-1,0c0,0-2,0.2-2,0.2c0,0-1.5,0.1-1.5,0.1c0,0-3,0.1-3,0.1l-0.3-0.1c0,0-0.1,0-0.2,0
	c-0.1,0.2-0.2,0.7-0.2,0.7S-1.5,26-1.5,26c0,0.2,0,1.8,0,1.8c-0.4,1-1.1,0.9-1.5,0.9h0c0,0-0.4,0-0.4,0c0,0-0.6,0.1-0.6,0.1
	c0,0-0.3,0-0.3,0c0,0.1-0.1,0.3-0.1,0.3l0.1,0.8c0,0.1,0,0.2,0,0.2c0,0.1,0,0.1,0.6,0.2c0,0,0.1,0,0.2,0c0.3-0.1,0.8-0.2,0.8-0.2
	c0.1,0,0.3,0.1,0.3,0.1c0.3,0.1,0.7,0.3,0.9,0.8c0,0,0,0.4,0,0.4l0,1.2c0,0,0,0.8,0,0.8l0.1,0.8c0,0,0,0.1,0,0.1c0,0.1,0,0.2,0,0.2
	c0,0,0,0.6,0,0.6c0,0,0,0.4,0,0.4c0,0.4-0.2,0.8-0.4,1l-0.4,0.2c0,0-1.3,0.1-1.7,0.1c-0.1,0.1-0.2,0.2-0.2,0.7l0.1,0.8
	c0,0,0.1,0.1,0.2,0.1c0,0,0.7,0,0.7,0c0.4-0.1,1.2-0.2,1.7,0.5l0.1,0.4l0,1.4c0,0-0.1,2.5-0.1,2.5c0,0,0,0.1,0,0.1
	c0.6,0,1.9,0,5.2,0h0c0,0-0.1,0-0.1,0.1c0.2-0.1,0.5-0.1,1.1-0.2c1.1,0.2,2,0.2,2.8,0.1c0,0,1.7,0,1.7,0c0.1,0,0.6,0.2,0.6,0.2
	c0,0,0.3,0.2,0.3,0.2c0.4,0.6,0.7,0.9,1.1,0.9c0.1-0.1,0.3-0.4,0.7-0.8l0.1-0.1l0.4-0.3c0,0,1.5-0.2,1.5-0.2c0,0,0.1,0,8.4,0
	c0,0,0.6,0,0.9,0c0-0.5-0.1-3.3-0.1-3.3c0,0,0-0.3,0-0.3l0-0.2c0-0.6,0.2-1,0.7-1.2c0,0,1.1-0.1,1.1-0.1c0.8,0,1.1,0,1.2-0.2
	c0.1-0.2,0.2-0.5,0.1-0.7c-0.2-0.4-0.4-0.4-1.2-0.4c0,0-0.7,0-0.7,0c-1.4-0.3-1.1-1.5-1.1-2c0,0,0,0,0,0c0,0,0-0.6,0-0.6
	c0,0,0-1.2,0-1.2c0-0.2,0-0.5,0-0.7c0-0.4,0-0.9,0.2-1.4l0.3-0.4c0.5-0.3,1.1-0.3,1.5-0.2c0.7,0.1,0.7,0,0.8-0.2
	c0.1-0.4,0.1-0.9,0-1.3c-0.1-0.1-0.4-0.1-1.1-0.1c0,0-0.8,0-0.8,0L24,28.7l-0.2-0.1c-0.2-0.1-0.3-0.3-0.3-0.5l0-1.3c0,0,0-1.3,0-1.3
	c0,0,0-0.5,0-0.5c0-0.6,0-0.7-0.1-0.7c-0.2,0-0.9,0.1-0.9,0.1c0,0-1,0-1,0c0,0-0.7,0-0.7,0l0,0c0,0-0.7-0.1-1-0.1c0,0,0,0,0,0
	c-1.5,0.2-3.1,0.2-4.6,0c0,0,0,0,0,0c0,0,0,0-0.1,0c0,0,0,0,0,0c0,0,0,0,0,0c-0.2,0-0.5,0.1-1.4,0.1c0,0-0.7,0-0.7,0
	c-0.2,0.1-0.3,0.1-0.7,0.3c0,0-1.3,0.3-1.3,0.3c-0.1,0-1-0.2-1-0.2l0,0l-1.5-0.4c-0.1,0-0.1,0-0.2,0C8.1,24.3,7.7,24.3,7.4,24.2
	C7.4,24.2,7.4,24.2,7.4,24.2z"/>
<path class="st0" d="M-32.6,24.6L-32.6,24.6l-1.5,0c0,0,0,0,0,0c0,0-0.1,0.2-0.1,0.2c0,0.3,0.1,1.5,0.1,1.5c0,0,0,1.3,0,1.3
	l-0.1,0.3c-0.4,0.8-1.1,0.7-1.5,0.7c0,0-0.1,0-0.2,0c0,0.2-0.1,1-0.1,1s0,0.3,0,0.5c0.1,0,0.2,0.1,0.2,0.1c0,0,0.4,0.1,0.4,0.1
	c0.1,0,0.9,0.2,0.9,0.2c0.4,0.1,0.4,0.4,0.4,0.6c0,0.1,0,0.7,0,0.7c0,0,0,0.9,0,0.9c0,0,0,0.1,0,0.1c0,0,0,0,0,0
	c0,0,0.2,0.6,0.2,0.6l-0.1,0.3c0,0,0,2.1,0,2.1c0,0-0.2,0.4-0.2,0.4c-0.4,0.5-0.9,0.5-1.3,0.5c0,0,0,0,0,0c0,0-0.2,0.1-0.4,0.1
	c-0.2,0.2-0.3,0.5-0.3,0.9l0.1,0.5c0.1,0.2,0.4,0.2,1,0.2l0.6,0.2c0.4,0.3,0.6,0.8,0.6,1.5l0,0.7c0,0,0,0.4,0,0.4c0,0,0,1.1,0,1.1
	c0,0,0,0.5,0,0.5s0.1,0.4,0.2,0.6c0.4,0,3.5,0,3.5,0l3.5,0c0.7,0.1,1.3,0.1,1.9,0c0,0,1.9,0,1.9,0c0.1,0,1,0.6,1,0.6l0.6,0.4
	c0,0,0,0,0.4-0.4c0.3-0.3,0.8-0.9,1.6-0.8c-0.1,0-0.2,0-0.3,0.1c0,0,0,0.1,0,0.1c0.2-0.2,1.3-0.2,6.3-0.2c0,0,3.1,0,3.9,0
	c0-0.4,0-1.7,0-1.7c0,0,0.1-2.4,0.1-2.4c0,0,0.2-0.4,0.2-0.4c0.6-0.6,1.3-0.5,1.8-0.5c0.5,0,0.7,0,0.8-0.1c0.1-0.3,0.2-0.9,0-1.2
	c-0.1-0.2-0.2-0.2-0.2-0.2c0,0-0.9,0-0.9,0c0,0-0.7,0-0.7,0c0,0-0.4-0.1-0.4-0.1c-0.7-0.4-0.6-1.1-0.6-1.5c0,0,0-0.5,0-0.5
	c0,0,0-0.2,0-0.2c0,0,0-1.5,0-1.5l0-1.5c0.2-1.4,1.4-1.4,2-1.4c0.3,0,0.6,0,0.7-0.1c0.2-0.3,0.2-0.9,0.1-1.3
	c-0.1-0.2-0.8-0.1-1.4-0.1c0,0-0.5,0-0.5,0l-0.5-0.2l-0.2-0.2L-9.5,28l0-2.7c0,0,0,0,0,0c0,0,0-0.5,0-0.5c0,0-0.1-0.3-0.1-0.4
	c-0.3,0-1.2,0.1-1.2,0.1c-0.1,0-3.1-0.1-3.1-0.1c-0.7,0.2-1.6,0.1-2.5,0.1l-0.7,0c-1.2,0-2.2,0.1-3.5,0.3c0,0-0.5,0.1-0.5,0.1
	c-0.2,0.1-0.7,0.3-1.3,0.1c-0.7-0.4-1.6-0.5-2.5-0.5c0,0-1.5-0.1-1.5-0.1C-28.4,24.6-30.5,24.6-32.6,24.6z M-9.6,24.4
	c0,0,0.1,0,0.1,0C-9.5,24.4-9.6,24.4-9.6,24.4z M-36,28.8C-36,28.8-35.9,28.8-36,28.8C-35.9,28.7-35.9,28.7-36,28.8
	c0-0.1,0-0.1,0-0.1C-35.9,28.6-36,28.7-36,28.8z"/>
<path class="st0" d="M2.8,69.6c-0.5,0.1-0.6,0.2-0.6,0.5c0,0.1,0,0.2-0.1,0.2c-0.3,0.3-0.7,0.7-1.2,0.8c-0.2,0.1-1,0.5-1,0.5
	C-0.7,71.9-1,72-1,72.5c0-0.1,0.1-0.1,0.1-0.1c0.1,0.1,1.1,0.2,1.1,0.2l1.1,0.1c0.9,0.2,1.2,0.9,1.4,1.5c0.2,0.5,0.3,0.8,0.7,1
	c0.1,0,0.1,0.1,0.1,0.1l0.3,0.4c0.6,0.9,1.3,1.9,2.4,2.1c0.1,0,0.6,0.2,0.6,0.2l1,0.4c0.2,0.2,0.2,0.4,0.2,0.6
	c0,0.2-0.1,0.5-0.2,0.7c0,0-0.1,0.2-0.1,0.3c0,0,0,0,0,0l0.4,0.5c0,0,0,0.1,0,0.1c0,0,0,0.1,0,0.1c0,0.1-0.1,0.1-0.1,0.1
	C8,80.9,8,81,8,81c0,0-0.2,0.5-0.2,0.5c-0.2,0.5-0.4,1-0.8,1.4c-0.7,0.3-1.2,0.1-1.6,0c-0.3-0.1-0.6-0.2-0.8-0.2c-0.3,0.1-1,0.4-1,1
	c0,0,0,0.3,0,0.3c0,0.4,0.1,0.6,0.2,0.8c0,0,0-0.1,0.1-0.1c0.1-0.1,0.3,0,0.4,0l0.1,0.1c0.1,0.1,0.1,0.1,0.1,0.2
	c0,0.5,0.2,1,0.5,1.3c0.1,0,0.1,0,0.1,0s0,0,0,0c0-0.1,0-0.4,0-0.4c0-0.4,0-0.8,0.4-1.1c0.3-0.3,0.7-0.4,1.1-0.4l0.2,0
	c0.1,0,0.3,0.1,0.3,0.2c0.3,0.2,0.6,0.5,0.7,1C7.9,85.8,8,85.9,8,85.9c0.4,0.4,0.6,0.6,0.8,0.5c0.3-0.9,1.1-1.6,1.5-1.9
	c0.5-0.5,1.4-0.6,2.5-0.3c0,0,0.1,0,0.1,0.1c0.2-0.2,0.3-0.5,0.3-0.7c0-0.1,0-0.2,0-0.3C13.2,83,13,83,12.5,83.1
	c-0.5,0.1-1.1,0.1-1.5-0.5c0-0.1,0-0.1,0-0.2c0-0.7,0.2-1.1,0.6-1.5c0.1,0,0.1-0.1,0.2-0.1l2.9,0l1.7,0c0.5,0.1,0.9-0.1,1.3-0.2
	c0.5-0.2,1.2-0.5,2-0.2c0,0-0.1,0-0.1,0c0,0,0.1-0.1,0.1-0.1s0.2-0.1,0.3-0.2c0.4-0.6,0.9-0.7,1.4-0.9c0.4-0.1,0.8-0.3,1.1-0.6
	c0,0,0,0,0,0c0,0,0-0.1,0-0.2c0,0,0-0.1,0-0.1c-0.3,0-1.8-0.3-1.8-0.3l-1.1-0.2c-0.1,0-0.2-0.1-0.2-0.1c-0.2-0.1-0.5-0.2-0.7-0.5
	c-0.1-0.1-0.3-0.1-0.3-0.1L18.2,77c0.1,0-0.4-0.1-0.4-0.1l-0.2-0.7l0-0.2c0-0.1,0.2-0.3,0.2-0.4l0.4-0.4l0.1-0.2c0,0,0-0.2-0.1-0.3
	c0,0-0.1,0-0.4,0c-0.3,0-0.8,0.1-1-0.4c0,0,0-0.1,0-0.1c0-0.1,0-0.2,0.1-0.2c0.4-0.4,0.6-1,0.6-1.7c0,0,0,0,0,0
	c-0.3,0.2-1.3,1-1.3,1c-0.1,0-0.2,0-0.3,0l-0.9,0.1c-0.5,0.1-1.2,0.3-1.7-0.3c-0.1-0.3-0.3-0.3-0.6-0.4l-0.5-0.2c0.1,0-1-0.2-1-0.2
	C10.2,72,9.1,71.7,8,72c-0.1,0-0.2,0-0.2,0c-0.3-0.1-0.5-0.3-0.5-0.5c-0.1-0.3,0.1-0.6,0.3-0.8c0.1-0.2,0.2-0.3,0.2-0.4
	c0,0-0.1-0.2-0.1-0.2l-0.5,0.1l-0.7,0.1c-1.1-0.4-2.2-0.7-3.4-0.7C3,69.5,2.8,69.6,2.8,69.6z M8,80.7C8,80.7,8,80.7,8,80.7
	C8,80.7,8,80.7,8,80.7C8,80.7,8,80.6,8,80.7C8,80.6,8,80.6,8,80.7z M3.6,84.9c0,0-0.1,0.1-0.1,0.1C3.6,84.9,3.6,84.9,3.6,84.9
	C3.6,84.9,3.6,84.9,3.6,84.9z"/>
<path class="st0" d="M-16.6,86.9c0.1,0-0.1,0.2,0,0.1l-0.7,0.8l-0.2,0.3c0,0.1-1.1,0.6-1.1,0.6c-0.4,0.2-0.7,0.3-0.8,0.5
	c0,0,0,0,0,0c0,0,0.2,0,0.2,0l0.7,0.1c0.5,0.1,1.2,0.2,1.6,0.8c0,0.1,0.2,0.5,0.2,0.5c0.2,0.7,0.4,1.4,0.9,1.8c0,0,0.1,0.2,0.1,0.2
	l0.2,0.1l0.4,0.4c0,0-0.1-0.1-0.2-0.1c0.5,0.2,0.8,0.7,1,1.2c-0.1,0,0.9,0.6,0.9,0.6c0.1-0.1,0.4,0,0.5,0.3c0.1,0,0.4,0.1,0.4,0.1
	c0.5,0.1,1.1,0.2,1.5,0.6c0.1,0.1,0.1,0.2,0.1,0.3c0,0,0,0,0,0.1L-11,97c-0.1,0.7-0.2,1.3-0.6,1.9c-0.4,0.5-0.9,0.7-1.4,0.8
	l-0.4,0.1c-0.1,0-0.1,0-0.2,0l-0.6-0.2c-0.5-0.1-1-0.3-1.5-0.1c-0.4,0.2-0.6,0.8-0.7,1.4c0,0.1,0,0.1-0.1,0.1c0,0,0,0,0,0.1
	c0,0.1,0,0.2,0.1,0.3c0,0,0,0.1,0.1,0.2c0,0,0,0,0,0c0.2,0,0.5,0,0.7,0.3c0,0,0,0.1,0.1,0.1c0.1,0.6,0.3,1,0.6,1.2
	c0-0.1,0.1-0.1,0.1-0.1l0.4-0.6c0.1,0,0.6-0.5,0.6-0.5l0.9-0.7c0.1-0.1,0.2,0,0.3,0.1c0.1,0.1,0.2,0.2,0.2,0.5c0,0,0,0.1,0,0.1
	c-0.2,0.3-0.3,0.7-0.3,1c0,0.2,0,0.3,0.1,0.4c0.2,0.2,0.5,0.5,0.5,0.5s0.1,0.1,0.2,0.2c0-0.1,0.1-0.1,0.1-0.2l0.3-0.9
	c0.5-0.7,1.1-1.3,1.8-1.7c1-0.3,2-0.2,2.9,0.2c0.1,0,0.1,0.1,0.1,0.2c0.2-0.2,0.3-0.6,0.3-1.1c0-0.1,0-0.2,0-0.4
	c-0.1-0.1-0.3-0.3-0.6-0.4l-0.2-0.1c0,0-0.3,0-0.3,0c-0.3,0-0.7,0-1-0.4c-0.2-0.6,0.1-1.1,0.3-1.4l0.1-0.2c0,0,0.1-0.1,0.1-0.1
	c0.4-0.2,0.8-0.1,1.1-0.1l0.4,0.1c0.2,0,0.3-0.1,0.5-0.2l0.2-0.2c0.1-0.1,0.1-0.1,0.2-0.1l0.7,0c0.6,0,1.3-0.1,1.9,0.3
	c0.1,0,0.6,0.1,0.6,0.1c0.5,0.2,0.9,0.2,1.2,0c0.3-0.6,1.1-0.6,1.7-0.5c0,0,0.2,0,0.4,0c-0.1-0.1-0.1-0.3-0.1-0.4
	c0-0.3,0.2-0.6,0.5-0.8c0.1,0,0.2-0.1,0.2,0c0.5,0.1,0.7-0.1,1-0.6c0,0,0.1-0.1,0.3-0.3c-0.1,0-0.2,0-0.3,0
	c-0.3,0.1-0.8,0.2-1.2-0.2c0.1,0.1,0.1,0.1,0.2,0.1c-0.6,0-1.1-0.2-1.6-0.5l-0.8-0.3c-0.4-0.1-0.8-0.3-0.8-1.1c0-0.1,0-0.2,0-0.2
	c0-0.1-0.1-0.2-0.1-0.2c0-0.1,0-0.3,0.1-0.4l0-0.3c0-0.1,0-0.1-0.4-0.1l-0.8-0.2c-0.1,0-0.1-0.1-0.2-0.2c0,0,0,0,0-0.1
	c0-0.1,0.1-0.1,0.1-0.2l0.5-0.7l0.3-0.4c-0.1,0.1-0.1,0.1-0.1,0.2c0-0.4,0.3-0.7,0.5-1c0.1-0.1,0.1-0.1,0.1-0.2c0,0,0,0-0.1,0
	l-0.9,0.2l-1,0.3c0.1,0-0.1,0.1-0.1,0.1l-0.9,0.2c0,0,0.2,0,0.2-0.1c-0.5,0.3-1.1,0.3-1.5,0.3l-0.7,0c-0.3,0-0.5-0.2-0.7-0.4
	c0,0,0-0.1,0-0.1c-0.1,0-0.2-0.1-0.2-0.1l-0.8-0.5c0,0,0.2,0.2,0.2,0.2l-2.3-0.6c0,0-0.8,0-0.8,0l-0.9,0c-0.3,0-0.6-0.1-0.7-0.4
	c-0.1-0.1-0.1-0.2-0.1-0.3c0-0.2,0.1-0.5,0.2-0.7c0,0,0.1-0.3,0.1-0.3c0,0-0.1-0.1-0.2-0.1c-0.4,0.1-0.8,0.1-1.1,0l-0.4-0.1
	C-15,86.7-15.8,86.8-16.6,86.9z M-12.6,87c0.1,0,0.1,0,0.2-0.1C-12.4,87-12.5,87-12.6,87z M-7.3,89.6C-7.3,89.7-7.3,89.7-7.3,89.6
	C-7.3,89.7-7.3,89.7-7.3,89.6c0,0,0-0.1,0.1-0.2C-7.2,89.5-7.3,89.6-7.3,89.6z"/>
<path class="st0" d="M25.6,87.8c0,0,0.1-0.1,0.1-0.1c-0.3,0.8-1,1.1-1.5,1.3l-0.5,0.2c-0.2,0.3-0.4,0.5-0.4,0.8c0,0,0,0,0,0
	c0.2,0,1.8,0.1,1.8,0.1c0.8,0.2,1.3,0.9,1.7,1.5l0.6,0.8c0.4,0.3,0.7,0.7,0.9,1.2c0.2,0.4,0.4,0.8,0.8,1c0,0,1.3,0.5,1.3,0.5
	l1.5,0.6c0.1,0,0.1,0.1,0.1,0.2c0,0.1,0.1,0.2,0.1,0.3c0,0.2-0.1,0.5-0.3,0.8c0,0,0,0.1,0,0.1c0,0.2,0,0.4,0,0.5
	c0,0.9-0.1,1.9-1.1,2.3c-0.7,0.1-1.4,0.2-2-0.3c0.1,0,0.1,0.1,0.2,0.1c-0.5,0-0.9,0.2-1.2,0.5c-0.1,0.2-0.2,0.4-0.2,0.6
	c0,0.3,0.1,0.7,0.2,0.9c0,0,0.3,0,0.3,0l0.3,0.1c0.2,0,0.3,0.2,0.2,0.4c0,0.3,0,0.4,0.1,0.5c-0.1-0.1,0.6,0.4,0.6,0.4l0.4,0.3
	c0,0,0.1,0,0.1-0.1c0-0.2,0.2-0.5,0.4-0.6c0.2-0.1,0.3-0.1,0.5,0c0.1,0,0.1,0.1,0.2,0.2c0,0,0.2,0.8,0.2,0.9
	c0.1,0.1,0.4,0.4,0.4,0.4c0.2,0.2,0.2,0.3,0.4,0.3c0,0,0-0.1,0.1-0.1c0-0.6,0.4-1,0.8-1.4l0.6-0.7c0.4-0.6,1-0.5,1.4-0.5l0.6,0
	c0.7-0.2,1,0.3,1.3,0.5c0.2,0.3,0.3,0.3,0.4,0.3c0-0.1,0.1-0.1,0.1-0.1c0.1-0.2,0.2-0.3,0.2-0.5c0,0,0-0.1,0-0.1c0,0,0,0,0,0
	c0-0.1,0.1-0.3,0.2-0.4l0,0l0-0.2c-0.1-0.2-0.2-0.3-0.3-0.4c-0.3-0.2-0.6-0.2-1-0.2c-0.4,0-0.9,0-1.2-0.2c-0.4-0.5-0.2-0.9,0-1.2
	l0.1-0.3c0,0,0-0.2,0.1-0.2c0.4-0.5,0.9-0.5,1.3-0.5c0.3,0,0.4,0,0.6-0.1c0,0,0,0,0,0l-0.2-0.6c0.3-0.6,0.8-0.5,1.2-0.5l0.2,0
	c0.2,0,0.8,0.4,0.8,0.4c1,0.5,1.9,1,3.1,0.9c0,0,0.7-0.3,0.7-0.3c0.3-0.2,0.6-0.5,1.1-0.5c0.1,0,0.1-0.1,0.1-0.1l0.6-0.3
	c0,0,0.1-0.1,0.1-0.3c0,0,0-0.1,0-0.1c0-0.1,0.1-0.3,0.2-0.3c0.3-0.1,1-0.5,1.2-1c0,0,0-0.2,0-0.2c0,0-0.4,0-0.4,0
	c-1.2,0.1-2.2-0.3-3.2-0.6l-0.6-0.2c-0.4-0.1-1.1-0.3-1.2-1c0,0,0,0,0-0.1c0-0.1,0-0.2,0.1-0.3l0.5-0.3c0.2-0.1,0.3-0.2,0.4-0.3
	c-0.1,0-0.1,0-0.2,0l-0.5-0.1c-0.1,0-0.4-0.6-0.4-0.6l0.4-0.8l0.3-0.4c0-0.1,0-0.2,0-0.3c0-0.2-0.1-0.4-0.1-0.5
	c-0.1,0-0.2,0.1-0.4,0.3l-0.7,0.5c-0.5,0.3-1.2,0.4-2.2,0.4c-0.1,0-0.1,0-0.2-0.1l-0.7-0.3c-0.5-0.2-1-0.5-1.3-1
	c-0.1,0-0.6-0.3-0.6-0.3S34,89.1,34,89.1c0,0-2.5,0.3-2.5,0.3c-0.1,0-0.2,0-0.2-0.1l-0.5-0.3c-0.1-0.1-0.2-0.1-0.2-0.2
	c0,0,0-0.1,0-0.1l0.3-0.8c0.1-0.2,0.2-0.3,0.2-0.5c0,0,0-0.1,0-0.1c0,0,0,0,0,0l-0.3,0c-0.1,0-1,0-1,0
	C28.4,86.8,26.6,86.7,25.6,87.8z M43.7,97.7C43.8,97.7,43.8,97.7,43.7,97.7C43.8,97.7,43.8,97.7,43.7,97.7z"/>
<path d="M49.9,23.6c1-0.1,2,0,3-0.2l0.2,0.2c0.9,0.1,2.2-0.4,2.8,0.4c0.1,1-0.1,1.7,0,2.7c0,0.5-0.2,1,0.3,1.3
	c0.7,0.1,1.5-0.1,2,0.3c0.4,0.5,0.4,1.1,0.4,1.8h-0.1c0.1,0.1-0.1,0.4-0.2,0.6c-0.5,0.5-1.5,0.5-2.3,0.5l-0.2,0.1l0,4.6
	c0.2,0.5,0.8,0.1,1.3,0.1c0.5,0.1,1.1,0.1,1.4,0.7c0.4,0.3-0.2,0.7,0.2,1c-0.3,0.4-0.3,1-0.9,1.1l-1.7,0.2l-0.2,0.3
	c0.1,1.4-0.1,2.8,0,4.1c-0.4,1.3-2,0.5-3,0.9c-0.7,0-1.2-0.2-1.9-0.2c-0.5-0.1-1.1,0.1-1.7,0.1c-0.2,0.2-0.6,0.1-0.9,0.1
	c-0.5-0.3-1.4-0.1-2-0.1c-0.4,0.1-1-0.1-1.3,0.4c0.1,0.3-0.4,0.3-0.2,0.6L44,45.4c-0.7-0.1-1.3-0.7-1.6-1.3c-0.5-0.1-1.2-0.4-1.6,0
	c-0.6,0.1-1-0.2-1.6-0.2c-1.3-0.1-2.4,0.4-3.7,0.1c-1.5-0.1-2.9,0.2-4.4,0.1c-0.9-0.5-0.2-1.6-0.3-2.4c-0.2-1,0.2-2-0.2-2.9
	c-0.8-0.1-1.8,0.2-2.4-0.5c-0.3-0.6-0.1-1.2,0.1-1.7c0.6-0.7,1.8-0.2,2.4-0.8v-4.7c-0.7-0.4-1.6,0-2.2-0.3c-0.5-0.5-0.6-1.1-0.5-1.8
	c0.1-0.3,0.2-0.8,0.7-1c0.3,0.2,0.5-0.2,0.8-0.1c0.3,0.1,0.7,0,1.1,0l0.2-0.3l-0.1-3.4c0.4-0.8,1.3-0.8,2.1-0.8
	c2.7,0.2,5.7-0.1,8.5,0c1,0.2,1.9,0.6,3,0.8c0.7-0.7,1.8-0.5,2.7-0.9l1.3,0C48.7,23.2,49.3,23.5,49.9,23.6z"/>
<path d="M8.5,23.7c0.8,0.2,1.5,0.4,2.3,0.6c0.8,0,1.3-0.5,2-0.6c0.7-0.1,1.5,0,2.3-0.2c1.5,0.2,3,0.2,4.5,0c0.5,0.3,1.1,0,1.6,0.1
	c0.8-0.2,1.5,0.2,2.2-0.1c0.7,0.3,0.5,1.2,0.6,1.8c0.1,0.9-0.1,1.7,0,2.6l0.2,0.1c0.9,0.1,1.9-0.3,2.5,0.5c0.1,0.5,0.2,1.2,0,1.7
	c-0.5,1.2-1.8,0.3-2.6,0.8c-0.4,1.1-0.1,2-0.1,3.1c0.2,0.7-0.5,1.8,0.4,2c0.9,0.1,2.1-0.4,2.5,0.7c0.2,0.4,0.2,1-0.1,1.4
	c-0.5,0.9-1.8,0.5-2.6,0.6c-0.4,0.2-0.2,0.7-0.3,1c0.1,1.2,0.1,2.7,0.1,3.8L23.7,44l-9.6,0l-1.5,0.2c-0.3,0.4-0.7,0.9-1.1,1.1
	c-0.9,0.2-1.5-0.5-1.9-1.1l-0.4-0.1c-1.4-0.1-2.9,0.2-4.3-0.1l-1,0.2l-5.6,0C-2,44-2,43.6-2,43.3c0.1-1.3,0-2.6,0.1-3.9
	c-0.4-0.6-1.2-0.1-1.8-0.2c-0.4,0-0.8-0.3-0.9-0.7c-0.1-0.7-0.2-1.8,0.5-2.2l1.9-0.1c0.5-0.5-0.1-1.1,0.2-1.7
	c-0.3-1.1,0.1-2.1-0.1-3.2C-2.1,31-2.5,31-2.7,30.9c-0.3,0-0.6,0-0.8,0.2c-0.5-0.1-1.2-0.2-1.3-0.8C-5,29.8-5.2,29.1-5,28.6
	c0.3-0.6,1-0.3,1.4-0.5c0.5-0.1,1.1,0.2,1.4-0.4c0.3-1.3-0.5-2.8,0.3-4c0.4-0.1,0.7,0,1,0.1c1-0.1,2-0.1,3-0.1
	c1.2-0.2,2.4,0.1,3.6-0.2c0.5,0.1,1.1-0.1,1.7,0C7.7,23.8,8.2,23.6,8.5,23.7z"/>
<path d="M-22.2,24.3c0.6,0.2,1-0.3,1.4-0.3c1.2-0.2,2.4-0.4,3.7-0.3c1,0.1,2.1,0.2,3.1,0c1,0.1,2,0.1,3,0.1c0.5-0.1,1.1-0.1,1.7-0.1
	c0.5,0.4,0.3,1,0.4,1.6c-0.1,0.9-0.1,1.8,0,2.7l0.2,0.2c0.8,0,2-0.3,2.5,0.5c0.2,0.6,0.2,1.5-0.2,2c-0.7,0.8-2.4-0.3-2.6,1.1
	c-0.1,1,0.2,1.9,0.1,3c0.2,0.6-0.2,1.2,0.4,1.6c0.6-0.1,1.1,0.2,1.7,0c0.3,0,0.7,0.2,0.8,0.5c0.4,0.6,0.2,1.5-0.1,2
	c-0.7,0.8-1.9-0.1-2.7,0.6c-0.2,1.5,0,3-0.1,4.5l-0.4,0.2c-3.4,0.1-6.9-0.1-10.3,0c-1-0.1-1.2,1.4-2.2,1c-0.5-0.2-0.9-0.7-1.4-1
	c-1.2-0.2-2.5,0.3-3.7,0c-2.5-0.1-4.9,0.2-7.5,0.1c-0.7-0.8-0.2-1.9-0.4-2.9c0-0.6,0.3-1.6-0.2-2c-0.6,0-1.4,0-1.7-0.7
	c-0.3-0.8-0.1-1.7,0.4-2.2c0.4-0.4,1.2,0,1.6-0.5l0-2.2c0.3-0.3-0.2-0.6-0.1-1c0.1-0.6-0.1-1-0.1-1.6c-0.3-0.2-0.7-0.1-1.1-0.2
	c-0.3-0.1-0.6-0.2-0.8-0.4c-0.2-0.7-0.1-1.6,0.2-2.3c0.5-0.5,1.4,0.1,1.7-0.5c-0.1-1,0.1-2-0.1-3.1c0.1-0.4,0.4-0.7,0.8-0.8
	c2.7,0,5.2,0.1,7.9-0.2C-24.9,23.9-23.3,23.6-22.2,24.3z"/>
<path class="st0" d="M51.6,24.5c0,5.1,0.3,10,0,15c-0.4,0.5-1.1,0-1.6,0.2c-0.7,0.4-1.5-0.1-2.3,0c-1.1,0.1-2.2,0.2-3.2,0.7
	c-0.1,0-0.2-0.1-0.2-0.3c-0.1-0.9,0.2-1.8-0.1-2.6c0-0.6,0.2-1.1,0.2-1.7c0-0.5-0.1-1.1-0.1-1.7c-0.1-0.3-0.5-0.1-0.8-0.2l-0.1,0.2
	c-0.2,2,0,4,0,6c0,0.2,0.2,0.4,0.1,0.6c-0.1,0.1-0.4,0.1-0.5,0c-0.6-0.5-1.5-0.4-2.2-0.7c-0.5,0.2-0.9-0.1-1.4-0.1l-3.6,0.1
	c-0.4-0.1-0.4-0.3-0.4-0.6c0.1-0.8-0.1-1.4,0-2.2c-0.1-0.7,0-1.5-0.1-2.2c0.1-2.1,0-4.5-0.1-6.6c0.1-0.8-0.1-1.7,0-2.5
	c0.2-0.5-0.4-1.3,0.4-1.5c2.5,0.5,5.4-0.5,7.7,0.8c0.2,0.8-0.1,1.9,0.3,2.6c0.3-0.2,1,0.2,1-0.2l-0.1-2c0.4-0.7,1.3-0.7,1.9-1
	c1.7-0.2,3.5-0.4,5.2-0.2L51.6,24.5z"/>
<path class="st3" d="M54.8,24.5c0.1,1.3,0.1,2.6,0.2,3.9c0.7,0.8,1.9-0.1,2.6,0.8c0.1,0.4-0.1,0.8-0.5,0.8c-0.7,0.2-1.7-0.4-2.1,0.4
	c-0.1,0.6,0,1.1,0,1.7c-0.1,0.6,0.1,1.3-0.1,1.9c0,0.8,0.1,1.7,0.1,2.6c0.5,0.8,1.6,0.3,2.4,0.4c0.1,0.2,0.4,0.2,0.3,0.5
	c-0.7,0.8-2.1-0.1-2.7,0.8c-0.1,0.8-0.1,1.7,0,2.4c-0.2,0.8,0.4,1.8-0.4,2.3c-1.8,0.1-3.6,0-5.3,0c-1.1,0.2-2.3,0-3.4,0.1
	c-0.2,0-0.4-0.1-0.4-0.3l0.1-0.2c2.9-0.3,5.6-0.1,8.5-0.2l0.3-0.3c0.3-1.2-0.1-2.7,0.1-3.9c-0.1-4.1-0.1-8.4-0.2-12.4
	c-0.2-0.5-0.6-0.7-0.9-1.1c0-0.1,0.1-0.3,0.2-0.3C54,24.4,54.5,24.3,54.8,24.5z"/>
<path class="st3" d="M23,24.7l0.2,3.8c0.5,0.9,1.6,0.3,2.4,0.5c0.2,0,0.5,0.2,0.5,0.4c0,0.3-0.1,0.7-0.4,0.7
	c-0.6-0.1-1.1,0.1-1.6,0.1c-0.4,0-0.8,0.1-0.9,0.5c-0.1,2,0,4.1,0,6.1l0.5,0.4l2.1-0.1c0.2,0.1,0.4,0.3,0.5,0.5
	c0,0.3-0.2,0.6-0.5,0.7c-0.9,0-2.1-0.4-2.6,0.5l-0.1,0.7c0.1,1.2,0.1,2.4,0,3.6c-0.1,0.4-0.6,0.3-1,0.4c-0.5-0.1-1,0.1-1.5-0.1
	c-0.8,0.1-1.5,0.3-2.2,0.1c-1.7-0.1-3.6,0.2-5.2,0c-0.1-0.1-0.2-0.2-0.1-0.4c0.6-0.3,1.3-0.1,2-0.1c2.4-0.1,4.7,0,7-0.1
	c0.4-0.2,0.4-0.6,0.5-1c0.1-2.2,0.2-4.3,0.1-6.6c0-0.3,0.1-0.4,0-0.6c-0.3-2,0.2-4-0.1-6c-0.3-1.1,0.4-2.3-0.4-3.2
	c-0.2-0.2-0.6-0.4-0.5-0.7C22,24.3,22.7,24.4,23,24.7z"/>
<path class="st3" d="M33,24.7c-0.1,0.4-0.5,0.6-0.7,1c-0.3,1.4,0.1,2.8-0.1,4.1c0.1,1.2-0.1,2.6,0.2,3.7c-0.1,1-0.3,2.1-0.1,3.2
	l-0.1,0.5l0.1,5.1c0.3,0.8,1.4,0.4,2,0.5c2.5-0.1,5.3,0.1,7.8,0c0,0.1,0.1,0.1,0.1,0.2c-0.5,0.2-1.2,0.8-1.7,0.3
	c-1.8-0.1-3.5,0-5.3,0c-0.5-0.1-1.1-0.1-1.6,0c-0.6-0.2-1.4,0.2-2-0.2c-0.2-1,0.1-2.3-0.3-3.2c0.3-0.4,0.2-1.1-0.1-1.5l-0.2-0.1
	l-2-0.1c-0.2-0.2-0.5-0.5-0.2-0.8c0.6-0.5,1.4-0.2,2.2-0.3c0.4-0.3,0.3-0.7,0.4-1.1c-0.2-1.6,0.1-3.4-0.2-5.1
	c-0.4-1.3-2.9,0.2-2.6-1.5c0.7-0.7,2.2,0.3,2.7-0.9l0.1-3.5c0.1-0.2,0.3-0.3,0.5-0.4C32.4,24.5,32.8,24.3,33,24.7z"/>
<path class="st0" d="M-13,25.1c0.1,1.3-0.2,2.5,0.1,3.7c-0.1,2.1-0.1,4.4-0.1,6.5c-0.1,1.4,0.2,2.8,0.1,4.2l-0.3,0.2
	c-2.4,0.2-5.4-0.6-7.5,0.6c-0.2,0-0.4,0-0.4-0.2c-0.1-1.1,0.2-2.2-0.1-3.1c0.2-1.3,0.1-2.6,0-3.9c0.2-2.6-0.1-5.1,0.1-7.7
	c0.8-0.7,2-0.6,3.1-0.7c1.4-0.1,2.9,0.1,4.2-0.2C-13.5,24.5-13,24.6-13,25.1z"/>
<path class="st0" d="M19,24.5c0.3,0,0.7,0,0.8,0.3c-0.2,1.1,0.2,2.1-0.1,3.1c0.2,0.6-0.1,1.2,0.1,1.8c-0.2,2,0.1,3.8,0.1,5.7
	c-0.2,1.3,0.1,2.8,0,4c0,0.2-0.2,0.4-0.4,0.4c-0.8,0.1-1.6-0.2-2.4,0c-0.4-0.2-0.9,0-1.3,0c-1.4-0.2-2.7,0.1-3.9,0.3
	c-0.2,0-0.3-0.2-0.3-0.3c0-1.8,0.2-3.8,0-5.6c0.2-1.2-0.2-2.4,0-3.6c-0.2-1.6,0-3.4,0-5.1c0.4-0.6,1.2-0.8,1.9-0.8
	c1.4-0.2,2.7,0.2,4-0.1H19z"/>
<path class="st0" d="M10.3,25.4c0.2,0.6,0,1.2,0.1,1.8c-0.1,1.7,0.3,3.3,0.1,4.9c0.1,2.6,0,5.4,0.1,8c-0.2,0.2-0.5,0-0.7-0.1
	c-0.7,0.1-1.3-0.3-2.1-0.3c-1.3,0.1-2.7-0.2-3.9,0.1c-0.5-0.3-1.6,0.5-1.6-0.6c0.1-0.4,0.1-0.7-0.1-1.1c0-0.5,0.2-1.1,0.1-1.6l0-11
	c-0.1-0.3-0.1-0.6,0-0.9l0.3-0.1c1.9,0.1,4.2-0.1,6.2,0C9.3,24.8,10,24.8,10.3,25.4z"/>
<path class="st3" d="M-9.9,25c0.2,1.3-0.1,2.6,0.3,3.8c0.8,0.5,1.7-0.1,2.6,0.2c0.3,0.2,0.2,0.6,0.1,0.8l-0.3,0.3
	c-0.8,0.1-2-0.3-2.5,0.5c0,2.1-0.1,4-0.1,6.2c0.1,0.2,0.2,0.5,0.4,0.5c0.7-0.2,1.4-0.2,2.2-0.2c0.3,0.2,0.5,0.6,0.2,0.9
	c-0.7,0.8-1.9,0.1-2.8,0.5l-0.1,0.3c-0.1,1.4,0,2.8-0.1,4.2c-0.3,0.4-0.9,0.2-1.3,0.2c-0.6-0.2-1.1,0.4-1.7,0
	c-1.4-0.1-2.9,0.2-4.2,0.1l-2.7-0.1c-0.1-0.1-0.2-0.2-0.1-0.4c0.9-0.6,2.1,0.2,3-0.4c0.7,0.1,1.5,0.3,2.1,0c0.7-0.2,1.1,0.5,1.7,0.1
	c0.7,0.3,1.5,0,2.2-0.1l0.3-0.5c0-2.4,0-4.8,0.1-7.1c-0.1-2.1-0.1-4.3-0.1-6.5c0.1-0.8,0-1.7,0-2.6l-1-1c0.2-0.4,0.8-0.2,1.2-0.2
	L-9.9,25z"/>
<path class="st3" d="M0.6,24.8c-0.2,0.7-1,0.8-1.2,1.4c0.1,2,0.1,4.2,0.1,6.2l-0.1,0.7c0,1,0.2,2.1,0,3.1c0.1,0.2-0.1,0.5,0,0.7
	c0.1,1.8,0,3.6,0.1,5.4c0.1,0.3,0.4,0.5,0.7,0.5c1.3-0.3,2.8,0.1,4-0.3l1,0.2l3.8-0.1c0.1,0.1,0.2,0.2,0.4,0.3
	c-0.1,0.7-1,0.3-1.5,0.4c-1.1-0.1-2.3,0-3.4,0c-1.3-0.3-2.7,0.4-3.9-0.1c-0.5,0-1.4,0.2-1.6-0.4c-0.4-1,0.2-2.1-0.2-3.1
	c0-0.5,0.1-1.1-0.5-1.4l-2.1,0c-0.2-0.1-0.4-0.4-0.4-0.7c-0.1-0.2,0.2-0.4,0.4-0.5c0.8-0.1,2,0.3,2.5-0.5c0-2,0.2-4,0-6
	c-0.7-1.1-1.9,0.1-2.8-0.7c-0.1-0.2-0.1-0.5,0.1-0.7l0.2-0.2c0.8-0.1,1.4-0.1,2.2-0.2l0.3-0.4l0.1-3.3c0.1-0.6,0.7-0.3,1.1-0.5
	C0.2,24.7,0.5,24.6,0.6,24.8z"/>
<path class="st0" d="M-22.3,25.3c0.2,3.8,0.1,8,0.2,11.7l0.1,0.3c0,1-0.1,2.1,0.1,3.1c-0.5,0.2-0.8-0.4-1.3-0.4
	c-1.2,0-2.4-0.6-3.6-0.2c-0.8-0.2-1.7,0.1-2.6,0l-0.3-0.2c0.1-4.1-0.2-8.4-0.1-12.5c-0.1-0.6-0.1-1.3-0.1-1.9l0.2-0.2
	c2.2,0.1,4.2-0.1,6.3-0.2C-23.1,24.8-22.6,24.9-22.3,25.3z"/>
<path class="st3" d="M-32,25c-0.2,0.7-1.2,1-1,1.8c0.1,2.6,0.2,5.3,0.1,7.9c0.2,0.9-0.1,1.9,0.1,2.9c-0.2,0.4,0.1,0.8,0,1.2
	c0.1,1.2,0.1,2.4,0.1,3.6c0.2,0.7,1,0.4,1.5,0.4c1.7-0.1,3.4,0,5.1-0.1c1,0.1,2.1-0.1,3,0.2c0,0.1,0,0.3-0.2,0.4
	c-2.1,0.2-4.1-0.1-6.3,0l-3.7,0l-0.3-0.3l-0.1-4.3c-0.6-0.8-2.5,0.4-2.3-1.2c0.5-0.8,1.7,0.2,2.3-0.7c0.1-2-0.1-4.1-0.1-6.3
	c-0.1-0.2-0.2-0.3-0.4-0.4c-0.5,0.2-0.8-0.2-1.3-0.1c-0.2-0.1-0.3-0.4-0.3-0.7c0.5-0.6,1.7,0.1,2-0.9l0.1-3.3
	c0.4-0.5,1.2-0.2,1.7-0.3L-32,25z"/>
<path class="st3" d="M34.2,25.3l0.1,3.6c0.3,0.3-0.1,0.7,0,1c0.1,3.4-0.1,7,0,10.4c-0.3,0.2-0.4,0.8-0.8,0.6c-0.3-0.3-0.1-0.7-0.1-1
	c0-0.8,0-1.4-0.1-2.2c-0.1-1.1,0.2-2.3-0.1-3.3l0.1-0.3c-0.1-2.1-0.2-4.5-0.1-6.6c0-0.8-0.2-1.8,0.7-2.3
	C34,25.1,34.2,25.2,34.2,25.3z"/>
<path class="st3" d="M21.6,26.1c0.1,4,0,8.3,0.2,12.2c-0.2,0.8,0.1,1.7-0.1,2.5l-0.1,0.1L20.9,40c-0.2-0.9,0.1-1.7,0-2.7
	c0-3.9-0.1-8.1-0.1-11.9c0.1-0.2,0.3,0,0.4,0.1L21.6,26.1z"/>
<path class="st3" d="M53.2,26.1c0.2,2,0,4,0.1,6c-0.2,0.5,0.1,1,0,1.4c0,2.4,0,4.9,0,7.2c-0.1,0.1-0.2,0.2-0.3,0.1l-0.4-0.8
	c0-4.9-0.1-9.8-0.1-14.6C53.1,25.1,53.1,25.9,53.2,26.1z"/>
<path class="st3" d="M-11.2,28c0.1,4-0.1,8.1,0.2,12c-0.2,0.3,0.1,0.9-0.5,0.9c-0.2,0-0.1-0.3-0.2-0.4l-0.3-0.4
	c0.3-2.6,0-4.9,0.1-7.5c-0.2-1,0-1.8,0-2.8c0-1.1,0-2.2-0.1-3.4c0-0.2,0-0.5,0.2-0.7C-10.8,25.8-11.4,27.2-11.2,28z"/>
<path class="st3" d="M1.2,26.1c0.2,1.9,0.1,4,0.2,6c-0.1,2.6,0,5.1-0.1,7.7c0.1,0.6-0.4,1.1-0.7,1.3c-0.3-0.9-0.1-1.8-0.2-2.8
	c0.1-1-0.1-1.9-0.1-2.9c-0.2-0.2,0.1-0.3,0-0.5c-0.1-2.5,0.1-5.2-0.1-7.8c0-0.5,0.1-1,0.6-1.3C1.2,25.8,1.3,26,1.2,26.1z"/>
<path class="st3" d="M-31.1,26.8c0,1.1,0.2,2.3,0.1,3.4c0.1,1.2,0,2.5,0.1,3.7c-0.2,1.2,0,2.4,0,3.6c0.2,0.5-0.2,1.2,0.1,1.7
	c0,0.6-0.1,1.4-0.7,1.7c-0.1,0-0.2-0.1-0.3-0.2c0.1-4.8-0.2-9.6-0.1-14.3c0.1-0.2,0.3-0.5,0.5-0.5C-30.9,26-31.2,26.5-31.1,26.8z"/>
<path d="M50.8,28v1.5c-0.1,0.1-0.2,0.3-0.4,0.3c-0.8-0.2-0.3-1.4-1.3-1.5c-0.5,0-1,0-1.3,0.5c-0.2,0.3-0.2,0.8-0.1,1.1
	c1.1,1.6,3.9,2.3,3.2,4.6c-0.1,0.5-0.6,0.9-1.1,1.2c-0.7,0.1-1.4-0.1-2,0.2c-0.4,0.1-0.6-0.2-0.9-0.2c-0.6,0-1.4,0.2-1.9-0.2
	c0.1-0.4,0.7-0.7,0.3-1.2c0-0.3-0.2-0.6-0.5-0.8c-1,0.4-2.8-0.7-3,1c-0.1,0.4,0.7,1,0,1.2c-1.5-0.2-3,0.2-4.4,0
	c-0.2-0.1-0.1-0.3,0-0.4c0.3-0.1,0.5-0.4,0.7-0.6l0-5.9c-0.2-0.3-0.6-0.2-0.9-0.2c-0.6,0.1-0.8,0.9-1.4,0.9c-0.2-0.5,0.1-1,0.2-1.5
	c0.2-0.5,0.8-0.4,1.1-0.1c1.4,0.2,3,0.1,4.4-0.2c0.3,0.7-0.4,1.3-0.7,2c-0.6,0.1,0-1-0.7-1c-0.4-0.1-0.7,0.1-0.8,0.5
	c-0.2,0.8,0.1,1.6-0.1,2.4c0.2,0.5,0.2,0.9,0,1.3c0.1,0.5,0.3,1.2,0.1,1.8c0,0.3,0.2,0.5,0.4,0.6c0.6,0,1.1-0.2,1.4-0.8
	c0.4-1.4,1-2.8,1.6-4.2c0.2-0.8,0.4-1.6,0.9-2.3c0.8,0,0.4,1,0.9,1.3c0.2,0.6,0.4,1.3,0.7,1.9c0.4,1.2,1,2.4,1.2,3.6
	c0.1,0.2,0.2,0.4,0.5,0.4c0.4,0,0.3-0.5,0.4-0.7c0.1-0.2-0.1-0.6,0.2-0.7c0.5,0.4,0.5,1.3,1.4,1.5c0.4,0.1,0.7-0.1,1-0.3
	c0.2-0.2,0.4-0.5,0.3-0.7c-0.7-0.9-1.8-1.5-2.5-2.4c-0.7-0.4-1-1.1-1-1.9c-0.2-0.9,0.4-1.6,1.1-2c0.7-0.4,1.4,0.2,2.1-0.2
	C50.4,27.7,50.7,27.7,50.8,28z"/>
<path d="M-23,28.4c0,0.4-0.5,0.4-0.7,0.8c-1,2-1.4,4.2-2.2,6.2c-0.1,0.1-0.3,0.3-0.6,0.2c-0.9-0.8-0.6-2-1.3-2.9
	c-0.3-1-0.8-1.8-1-2.8c-0.1-0.6-0.7-0.9-0.8-1.4c0.2-0.2,0.7-0.1,1-0.1c0.4,0,1-0.2,1.3,0.2c-0.4,0.9,0.5,1.6,0.5,2.5
	c0.2,0.6,0.4,1.4,0.9,1.8h0.1c0.4-1.5,1.4-3,1-4.7c0.4-0.4,1.3-0.4,1.8-0.1L-23,28.4z"/>
<path d="M8.7,29c0.4,0.6,0.6,1.6,0.2,2.3c-0.3,0.7-1,1.3-1.7,1.4c-0.3,0.2,0,0.5,0.1,0.7c0.7,0.7,1.2,1.6,2,2c0,0.4-0.5,0.4-0.8,0.5
	c-0.5-0.1-1.1-0.2-1.4-0.7c-0.4-0.8-1.3-1.2-1.7-2c-0.2-0.1-0.2,0.1-0.3,0.2C5.2,34,4.9,35,5.5,35.6c-0.4,0.6-1.2,0.1-1.8,0.2
	c-0.3-0.3,0.1-0.6,0.1-0.9c0-1.8,0-3.6-0.1-5.4c0.2-0.5-1.1-1-0.2-1.2c1.6-0.1,3.2-0.5,4.6,0.2L8.7,29z"/>
<path d="M-15.6,28.9c0,0.3,0.2,0.5,0.1,0.8c-0.1,0.3-0.4,0.2-0.6,0.1c-0.3-0.4-0.7-0.7-1.1-1c-0.3,0.1-0.9,0-1,0.4
	c0.1,0.8-0.2,1.7,0.1,2.5c0.2,0.2,0.5,0.1,0.8,0.1c0.3-0.2,0.4-0.7,0.8-0.7c0.2,0.6,0.2,1.3,0,1.9c-0.6,0.2-0.9-1-1.6-0.4l-0.2,0.2
	l0.1,2.2c0.2,0.5,0.8,0.2,1.2,0.2c0.7-0.1,1.1-0.8,1.2-1.4c0.1,0,0.2-0.1,0.3-0.1c0.4,0.5,0.2,1.1,0.2,1.7c-0.1,0.5-0.6,0.4-1,0.5
	l-1.3,0c-0.9,0-2.1,0.2-3,0c-0.2-0.1-0.1-0.3-0.1-0.4c0.9,0,0.6-1,0.9-1.5c-0.1-1.5,0.2-3.2-0.2-4.6c-0.2-0.3-0.7-0.4-0.6-0.7
	c0.8-0.4,1.7-0.1,2.6-0.2C-17.1,28.6-15.6,27.3-15.6,28.9z"/>
<path d="M16.2,28.4c0.2,0.3-0.2,0.4-0.2,0.6c-0.4,0.7,0.1,1.4-0.1,2.1c0.1,1.3-0.3,2.7,0.1,4c0.1,0.3,0.7,0.3,0.5,0.7l-0.2,0.1
	c-0.8-0.1-1.7,0.1-2.5-0.2c-0.2-0.4,0.4-0.6,0.4-1c0-1.3-0.1-2.8,0-4.1c0.2-0.4-0.1-0.7,0-1.2c0.2-0.5-1-1.1,0.1-1.3
	C14.9,28.3,15.6,28.1,16.2,28.4z"/>
<path class="st0" d="M7,29c0.5,0.2,0.7,0.7,0.7,1.2c-0.1,0.8-0.4,1.6-1.1,2c-0.4,0.1-0.7,0.2-1.1,0.1c-0.2-0.4-0.2-1-0.2-1.4
	C5,30.2,5.2,29.7,5.2,29c0.3-0.4,0.8-0.2,1.2-0.2C6.6,28.9,6.8,29,7,29z"/>
<path class="st0" d="M44,30.9c0.2,0.7,0.6,1.4,0.5,2.1c-0.5,0.4-1.2,0-1.7-0.1c-0.2-0.2-0.1-0.4,0-0.6c0-0.7,0.4-1.3,0.8-1.9
	C43.9,30.4,43.9,30.7,44,30.9z"/>
<path class="st3" d="M-12.1,41c0.2,0.1,0.3,0.4,0.3,0.7l-0.3,0.1c-1.6,0.2-3.1-0.1-4.7,0.1c-1,0.1-2-0.1-2.9,0
	c-0.3,0-0.6-0.2-0.8-0.4c-0.1-0.4,0.3-0.4,0.5-0.5c2-0.5,4.3-0.2,6.5-0.4C-13.1,40.4-12.4,40.6-12.1,41z"/>
<path class="st3" d="M20.9,41.3c0,0.2,0.2,0.3,0.1,0.4c-1.3,0.4-2.6-0.1-3.9,0.1c-1.5,0-2.8,0.2-4.2,0.1c-0.2-0.1-0.5-0.4-0.5-0.7
	c0-0.2,0.2-0.3,0.4-0.3c2.3-0.3,4.8-0.2,7.1-0.2C20.3,40.5,20.6,40.9,20.9,41.3z"/>
<path class="st3" d="M-22.6,41.3c0.2,0.3-0.2,0.5-0.4,0.6c-2.3,0.2-4.5-0.1-6.8,0c-0.3-0.1-0.8,0.1-1.1-0.2c0.1-0.4,0.5-0.7,0.8-0.9
	c1.3-0.1,2.5-0.4,3.8-0.1C-25,40.6-23.6,40.7-22.6,41.3z"/>
<path class="st3" d="M52.6,41.4c0.1,0.4-0.4,0.2-0.5,0.3c-1.5-0.1-2.8,0.2-4.2,0c-1.1,0.2-2-0.1-3.1,0.1c-0.1-0.1-0.2-0.3-0.1-0.5
	c1-0.5,2.2-0.6,3.3-0.6c1.3-0.1,2.4,0.1,3.6,0C52.1,40.7,52.4,41.1,52.6,41.4z"/>
<path class="st3" d="M8.6,40.7c0.4,0.1,0.9,0.2,1.1,0.6c0,0.2-0.2,0.5-0.4,0.5c-0.9,0-1.9-0.2-2.8,0.1c-1.7,0.1-3.2-0.2-4.9,0
	c-0.1,0-0.2-0.1-0.3-0.2c0-0.4,0.5-0.7,0.8-0.9c0.9,0.2,1.6-0.3,2.5-0.1L8.6,40.7z"/>
<path class="st3" d="M41.2,40.9c0.1,0.2,0.3,0,0.5,0.1c0.3,0.2,0.8,0.2,0.8,0.7c-0.4,0.2-0.9,0.2-1.3,0.1c-1.3,0.3-2.7-0.1-4,0.1
	c-1-0.2-2,0.1-3-0.1c-0.1-0.1-0.1-0.2-0.1-0.3c1.2-1.1,2.8-0.4,4.3-0.7C39.4,40.9,40.2,40.7,41.2,40.9z"/>
<path class="st3" d="M11.9,42.1c0.1,0.9,0.1,2-0.7,2.5c-0.3,0-0.7-0.1-0.8-0.5c-0.2-0.8-0.2-1.9,0.4-2.5
	C11.3,40.8,11.6,41.8,11.9,42.1z"/>
<path class="st3" d="M-20.8,43c-0.1,0.5,0.1,1.2-0.5,1.4c-0.2,0.1-0.5,0-0.7-0.1c-0.3-0.5-0.3-1.1-0.3-1.6c0.2-0.3,0.4-0.7,0.7-0.9
	C-21,41.8-20.9,42.5-20.8,43z"/>
<path class="st3" d="M44.4,43c0.1,0.4,0.1,0.8,0,1.2c-0.2,0.2-0.5,0.5-0.8,0.3c-0.5-0.4-0.6-1.1-0.4-1.8c0.2-0.2,0.2-0.5,0.5-0.7
	C44.2,42.1,44.2,42.7,44.4,43z"/>
<path d="M43.1,51.2c0,0.6,0.5,1,0.8,1.6c0.5,0.5,1.1,1,1.8,1c0.1,0.2,0.3,0.1,0.5,0.2c0.3,0.8-0.8,1.3-0.5,2.2
	c0.3,0.8,0.5,1.8,1.4,2.2c0.1,0.2,0.2,0.6,0,0.8c-0.4,0.6-0.5,1.3-0.7,2c0.1,0.1,0,0.4,0.3,0.4c0.6-0.2,0.7-0.8,1-1.3
	c0-0.3-0.1-0.7,0.1-1c0.2-0.2,0.5-0.1,0.7-0.1c0.7,0.4,1.5,0.1,2.1-0.3c0.6-0.2,1-1.1,1.6-0.8c0.3,0.3,0.2,0.7,0.1,1
	c-0.1,1.2-0.4,2.6,0.5,3.5c0.2,0.2,0.4,0.4,0.3,0.7c-0.3,0.3-0.7,0.4-1.1,0.7c-0.6,0.8-1,1.9-0.6,2.9c0.1,0.3-0.1,0.6-0.4,0.7
	c-0.7,0-1,0.6-1.5,1.1c-0.5,0.8-0.5,2-0.3,2.8c-0.1,0.2-0.2,0.5-0.5,0.5c-0.6-0.1-1.3,0.1-1.6,0.7c-0.4,0.6,0.2,1.3-0.1,1.9
	c-0.9,0.6-2.2,0.4-3,1.3C43.8,76.3,44,77,44,77.6c0.2,1.7,1.4,3,2.5,4.3c1,0.7,1.5,2,2.8,2.1c0.5,0.3,1.1,0.8,1.1,1.4
	c0.2,2.3-0.7,4.2-1.4,6.1c-0.2,0.3-0.6,0.4-0.9,0.3c-1.9-2-2-4.7-3.5-6.9c-1.5-2.1-3.6-4-5.3-5.9c-0.6-0.7-1.4-1.2-2.1-1.7
	c-1.3-0.6-2.7-1.3-4.3-1.2c-0.9-0.2-0.4-1.3-0.8-1.7c0-0.4,0.4-0.6,0.7-0.8c0.2,0,0.3-0.2,0.5-0.4c0-0.3,0-0.7-0.4-0.8
	c-0.9,0-1.6-0.8-2.5-0.2c-1.1,0-1.9-0.8-2.4-1.7c-0.2-1.3,0.4-2.3,1.4-3.1c0-0.7,0.5-1.3,1.1-1.6c0.3,0,0.5-0.3,0.8-0.4
	c0.7-0.2,1.5,0.1,2,0.5c0.7,0.5,0.7,1.3,0.7,2c0.5,0.8,1.1,1.5,1,2.5c0.1,0.3-0.1,0.6-0.2,0.9c0.1,0.7,0.3,1.3,0.7,1.9
	c1.7,0.8,3.1,2.3,4.8,3.3c0.1,0,0.3,0,0.4-0.1c0.1-0.4,0.1-0.8-0.2-1.1c-0.3-0.4-1-0.1-1.3-0.5c0.4-0.8,0.1-1.7-0.4-2.3
	c-0.5-0.4-1.1-0.4-1.6-0.7c-0.1-0.9,0.5-1.7,0.2-2.6c-0.2-0.5-0.7-0.8-1.1-1.1c-0.4-0.1-1.1,0.3-1.3-0.3c0.4-1.1,1.3-2.3,0.4-3.4
	c-0.2-0.4-0.5-0.7-1-0.8c-0.4-0.1-0.8,0.2-1.2-0.1c-0.5-0.5,0.3-0.9,0.4-1.3c0.2-1.3,0.4-2.7-0.8-3.6c-0.1-0.1-0.2-0.4-0.1-0.5
	c0.8-0.6,1.6,0.2,2.3,0.4c0.9,0.1,1.9,0.1,2.7-0.2c0.6,0.1,0.2,0.8,0.4,1.2c0.2,0.4,0.5,0.9,1,1c0.2,0,0.3-0.1,0.4-0.2
	c0.1-0.8-1.1-0.9-0.8-1.7c0.4-0.3,0.9-0.6,1.1-1.1c0.2-0.5,0.2-1.2,0.1-1.8c-0.2-0.4-0.6-0.6-0.6-1c0.7-0.4,1.6-0.5,2.1-1.4
	c0.5-0.5,0.4-1.4,1-1.8C42.8,51,43,51,43.1,51.2z"/>
<path class="st4" d="M44.4,55c0.6,0.7,0.2,1.9,0.8,2.7c0.2,0.6,1.2,0.9,0.8,1.6c-0.3,0.4-0.4,1-0.5,1.5c-0.4,1,0.2,1.8,0.5,2.7
	c-0.4,0.1-0.3,0.7-0.6,0.9l-0.3,1.9c0.2,0.5,0.4,0.9,0.2,1.4c-0.4,0.5-0.6,1-0.8,1.5c0.1,0.8-0.2,1.7,0.3,2.4
	c-0.1,0.2,0.2,0.7-0.2,0.6c-0.1,0.7-1.1,0.2-1.1,1c-0.2,0.5-0.3,1.2,0,1.7c0.2,0.6-0.5,0.8-0.4,1.3c0.1,0.8-0.4,1.8,0.2,2.5
	c0.4,2.1,2.4,3.4,3.8,5.1c0.2,0.4,1,0.4,1,0.9c-0.5,1.1-1,2.1-0.8,3.5c0,0.2,0.1,0.5,0,0.7l-0.2-0.2c-0.4-1.2-0.8-2.4-1.3-3.5
	c-1.2-2.6-3.5-4.6-5.5-6.6c-1-1.3-2.5-1.9-3.8-2.7c-0.5-0.3-1-0.5-1.6-0.7c-0.5-0.5-2.1,0.2-1.7-1.1c0.2-0.6,1.1-1.1,0.7-2
	c0.2-0.1,0.3-0.2,0.5-0.2c0,1.7,1.7,2.1,2.8,2.9c1.2,0.5,2.1,1.7,3.3,2.3c0.8,0.1,1.1-0.7,1.7-1c0.5-0.3,0.4-0.9,0.4-1.4
	c0.1-1.3-0.6-2.4-1.4-3.3c0-0.7,0.2-1.2,0.2-1.9c-0.2-1-0.8-1.9-1.6-2.6c0-0.1,0-0.2,0.1-0.3c0.7-1.2-0.1-2.4-0.2-3.7
	c-0.3-0.5,0.6-0.6,0.7-1.1c0.2-0.5,0.6-1.1,0.4-1.7c-0.1-0.5-0.1-1-0.4-1.4c-0.1-1.2,1.4-2,0.7-3.3c-0.2-0.3-0.2-0.6-0.2-1
	c0.5-0.2,1-0.6,1.3-1.1c0.1-0.1,0.4-0.2,0.6-0.1L44.4,55z"/>
<path d="M43.4,56.2c0.2,1.3-0.6,2.3-0.2,3.5l0.1,1c0.8,1.2,0.4,2.9,0.3,4.3c-0.1,0.3,0,0.4-0.2,0.7c0,0.7-0.2,1.5,0.1,2.2
	c0.3,1.2,0.7,2.5,0.3,3.8c-0.2,0-0.4,0.2-0.5,0c-0.2-0.8,0.1-1.7-0.5-2.4c-0.4-1.9-0.4-4,0-5.8c0-1.7-0.8-3.4-0.5-5.1
	c0-0.8,0.1-1.5,0.3-2.2C42.9,55.7,43.3,55.9,43.4,56.2z"/>
<path class="st4" d="M37.2,59.1c0.5,0.9,1.1,1.9,2.3,1.7c0,0.2,0,0.5-0.1,0.7c-0.5,0.2-0.5,0.7-0.6,1.1c0.3,0.6,0.4,1.4,0.3,2.2
	c-0.2-0.7-0.7-1.2-0.9-1.9c-0.6-0.7-1-1.5-1.4-2.3c-0.1-0.1-0.4-0.2-0.5-0.1c-0.6,1,0.5,1.7,0.8,2.7c0.2,0.2,0.4,0.4,0.3,0.7
	c0.8,0.5,1.1,1.5,1.7,2.2c-0.1,0.5-0.6,0.8-0.4,1.4c0.9,0.4,1.6,1.3,1.7,2.2c0.1,0.7-0.5,1.4-0.2,2.1c1,0.8,2.1,2.1,1.6,3.5
	c-0.2-0.2-0.2-0.5-0.5-0.7c-0.3-0.4-0.9-0.5-1-1c0.1-0.9-0.3-1.6-0.9-2.2c-0.4-0.5-1.5-0.5-1.1-1.3c0.2-0.5,0.2-1.2,0-1.6
	c-0.4-0.7-1-1.4-1.7-1.8c-0.1-1,0.4-2.1-0.2-3c-0.4-0.5-0.8-1.3-1.5-1.4c-0.5,0.1-0.3-0.4-0.4-0.8c0.7-0.7,0.1-1.7,0.3-2.6
	L37.2,59.1z"/>
<path class="st4" d="M51,60.8c0,0.8,0.3,1.4,0.6,2c0,0.8-1,1.3-1.1,2.1c-0.1,0.5-0.4,1.1-0.2,1.8c-0.2,0.7-1.1,0.5-1.4,1.2
	c-0.3,1-1,1.9-0.7,3.1c-0.7,0.5-1.8,1-1.9,1.9c-0.2,0.4,0.1,1.1-0.4,1.3c-0.5,0-1,0.6-1.6,0.3c-0.2-0.3-0.2-0.7,0-1
	c0.4-0.8,1.7-0.8,1.7-1.8c-1-0.6-0.5-2-0.4-2.9c1.4-1.4,2.6-3.3,4-4.8c0.1-0.5,0.3-0.9,0.3-1.4c-0.1-0.2-0.3-0.4-0.5-0.3
	c-0.7,0.9-0.8,2.2-1.9,2.8c-0.6,0.4-0.5,1.3-1.2,1.4c-0.3-0.5,0-1.1,0-1.6c0.4-0.5,0.4-1,0.9-1.4c0.2-0.5-0.7-0.7-0.3-1.1
	c0.6-0.6,1.4-1.1,1.6-2c0.5-0.3,1.3,0.1,1.7-0.3c0.3-0.2,0.5-0.6,1-0.5C51.2,60,51,60.3,51,60.8z"/>
<path class="st2" d="M32.8,66.5c0.1,0.3,0.4,0.6,0.3,0.9c-0.5,0.1-0.9,0.5-1.5,0.2c-0.2-0.5-1.3-0.4-0.8-1.2
	c0.2-0.3,0.5-0.5,0.8-0.5C32.2,65.8,32.5,66.1,32.8,66.5z"/>
<path class="st2" d="M31.1,68c0.1,0.9,0.5,2.3-0.4,2.9c-0.5,0-1,0.1-1.4-0.2c-0.4-0.6-0.6-1.3-0.2-2C29.4,68,30.4,67.7,31.1,68z"/>
<path class="st2" d="M33.9,68.8c0.5,0.5,0.3,1.4,0.2,2c-0.2,0.3-0.4,0.6-0.8,0.7c-0.3,0.1-0.7,0.1-1-0.2c-0.4-0.5-0.2-1.3-0.3-1.9
	c0.2-0.3,0.2-0.8,0.7-0.9C33.2,68.4,33.6,68.4,33.9,68.8z"/>
<path class="st5" d="M6.5,69.9C7,69.9,7.8,69.3,8,70.1c0.2,0.7-1.1,1.1-0.1,1.6c1.6-0.4,3.1,0.2,4.5,0.5c0.4,0.2,1,0.2,1.1,0.7
	c0.7,0.8,1.6-0.1,2.4,0.2c0.5-0.3,0.9-0.6,1.4-1.1c0.1,0,0.2,0,0.4,0c0.1,0.8-0.1,1.7-0.6,2.3c0.3,0.6,1-0.2,1.4,0.4
	c0.1,0.2,0.2,0.5,0.1,0.7c-0.2,0.2-0.4,0.6-0.7,0.7c0,0.3-0.1,0.7,0.3,0.7c0.2,0,0.3,0.2,0.6,0.3c0.1,0.3,0.5,0.4,0.7,0.5
	c1,0.2,2,0.5,3,0.5c0.3,0.2,0.2,0.6,0.1,0.8c-0.7,0.8-1.9,0.6-2.5,1.5c-0.3,0.1-0.4,0.5-0.7,0.5c-1.3-0.4-2,0.7-3.1,0.5
	c-1.6,0-3-0.1-4.6,0c-0.4,0.3-0.5,0.7-0.5,1.2c0.5,0.9,2-0.4,2.3,0.9c0.1,0.5,0,1-0.4,1.4c-0.2,0.2-0.3,0-0.5-0.1
	c-0.7-0.2-1.6-0.3-2.2,0.2c-0.7,0.5-1.3,1.2-1.5,1.9c-0.7,0.3-1.1-0.5-1.6-0.9c0-0.5-0.4-0.7-0.7-1c-0.5,0-0.8-0.1-1.1,0.3
	c-0.6,0.4,0.2,1.8-1,1.6c-0.5-0.4-0.6-1-0.7-1.6L3.9,85c0,0.2-0.2,0.2-0.4,0.2c-0.5-0.3-0.4-0.9-0.4-1.4c0.1-0.7,0.7-1.1,1.3-1.3
	c0.8-0.2,1.4,0.7,2.3,0.3c0.5-0.5,0.7-1.2,1-1.8c0.1-0.1-0.1-0.2,0.1-0.3c-0.1-0.2-0.4-0.2-0.4-0.5c0-0.5,0.5-1,0.1-1.4
	c-0.4-0.4-1-0.2-1.4-0.5c-1.3-0.3-2.1-1.6-2.8-2.6c-1.2-0.5-0.7-2.2-2-2.5c-0.7-0.2-1.5,0.1-2.1-0.2l0-0.1c-0.2,0-0.4-0.1-0.5-0.2
	c0-1.2,1.4-1.1,2.1-1.7c0.4-0.1,0.8-0.4,1.1-0.7c0-0.7,0.7-0.7,1.2-0.9C4.3,69.1,5.4,69.5,6.5,69.9z"/>
<path class="st0" d="M6.4,70.7c0.1,0.2-0.3,0.6,0.1,0.9C7,72,7.3,72.5,7.9,72.7c1.6-0.5,3.3,0.1,4.8,0.6c0.2,0.4,0.6,0.3,0.8,0.5
	c1.2,0.7,2.6,1.2,3.9,1.6c-0.3,0.5-1,0.5-1.6,0.8c-1.1-0.2-2.2-0.3-3.1-0.9c-0.2,0-0.5,0-0.6,0.2c0.2,0.8,1.2,0.6,1.7,1.2
	c0.1,0,0.3,0,0.3,0.1c-1.4,0.3-2.5-0.4-3.8-0.8c-0.2,0-0.1,0.2-0.1,0.3c0.2,0.2,0.4,0.5,0.6,0.7c-1.1,0.3-2-0.5-2.9-0.8
	c-0.7-0.3-1.2-1-1.8-1.5c-0.2-0.1-0.4,0.1-0.5,0.3c0.5,1.2,1.7,1.7,2.8,2.4c0.9,0.4,1.9,0.5,2.9,0.6c1-0.2,1.9-0.4,3.1-0.3
	c0.1,0.1,0.4,0.2,0.2,0.5c-0.6,1-2,0.4-2.5,1.5c0,0.1,0.2,0.2,0.1,0.4c-0.6-0.1-1.2,0-1.8-0.1c-0.6-0.1-0.3-0.8-0.5-1.2
	c-0.7-0.6-1.5-0.8-2.4-0.7L6,77.3c-1.5-0.6-1.4-2.2-2.7-3c0-0.9-1.2-1.3-1.2-2.2c-0.1-0.3-0.3-0.7,0-1c0.6-0.1,0.1-0.9,0.7-1
	C4.1,69.7,5.3,70.3,6.4,70.7z"/>
<path d="M4.4,70.7c0.3,0.2,0.3,0.7,0.2,1c-0.2,0.5-0.7,0.4-1.1,0.4c-0.2-0.1-0.5-0.4-0.5-0.7c-0.2-0.4,0.2-0.8,0.5-0.9
	C3.8,70.4,4.1,70.5,4.4,70.7z"/>
<path class="st2" d="M1.3,72.4c-0.5,0-1.1-0.1-1.7-0.1l-0.1-0.1c0.6-0.4,1.3-0.5,1.9-0.9C1.2,71.7,1.7,72.2,1.3,72.4z"/>
<path class="st0" d="M16.3,73.7c0,0.1-0.2,0.2-0.3,0.2h-0.1C15.8,73.6,16.1,73.7,16.3,73.7z"/>
<path class="st0" d="M19.5,78c0.5,0.4,1.2,0.5,1.9,0.6c-0.4,0.6-1.2,0.3-1.9,0.2c-1,0-1.8-0.4-2.6-0.9c-0.5,0.2-0.8-0.4-1.2-0.6
	c-0.1-0.3,0.4-0.4,0.5-0.5C17.5,76.7,18.3,77.9,19.5,78z"/>
<path class="st0" d="M18.3,79.2c0.4,0.2,1.1-0.1,1.3,0.5c-1.2,0.6-2.4-0.3-3.6-0.6c-0.1-0.2-0.6-0.2-0.4-0.6
	c0.2-0.3,0.6-0.1,0.8-0.1L18.3,79.2z"/>
<path class="st0" d="M9.4,79.1c0,0.2-0.2,0.4-0.4,0.5c-0.3,0.1-0.7-0.1-0.7-0.4c0-0.1,0.1-0.3,0.2-0.4C8.9,78.7,9.2,78.8,9.4,79.1z"
	/>
<path class="st0" d="M17,80.3c-0.3,0.4-0.8,0-1.1,0c-0.5-0.2-1-0.4-1.4-0.7c0.1-0.4,0.6-0.1,0.8-0.1C15.8,79.7,16.4,79.9,17,80.3z"
	/>
<path class="st0" d="M14.4,80.6c-0.2,0.2-0.5,0.1-0.8,0c-0.2-0.3-0.6-0.4-0.5-0.7c0.2-0.2,0.5,0.1,0.8,0.2
	C14,80.3,14.3,80.3,14.4,80.6z"/>
<path class="st2" d="M8.7,80.7c0.1,0.9-0.7,1.5-0.8,2.3c-0.5,0.3-0.6,0.8-1,1.2c0,0.1,0.1,0.1,0.1,0.2c-0.7,0-1.4,0.1-1.7,0.7
	C5,85.4,5,85.8,5,86.1c-0.6-0.2-0.3-1.1-0.4-1.5c0.3-0.7,1.2-0.1,1.7-0.5c0.1-0.3,0.7-0.3,0.3-0.7c-0.2-0.1-0.4,0-0.6,0.1
	c0.1,0.2-0.4,0.1-0.5,0.2c-0.6,0.3-1.4-0.3-1.7,0.6c0,0.1-0.1,0.1-0.2,0.1c-0.1-0.4-0.1-0.8,0.2-1.1c0.5-0.2,1.4-0.3,1.9,0.1
	c0.5-0.2,0.9-0.2,1.4-0.2c0.5-0.8,0.8-1.7,1.1-2.6C8.5,80.4,8.4,80.8,8.7,80.7z"/>
<path class="st1" d="M10.1,80.9C9.7,81.4,10,82.7,9,82.6c-0.1,0-0.2-0.1-0.3-0.2c0.1-0.6,0.5-1.2,1-1.6C9.9,80.7,10,80.8,10.1,80.9z
	"/>
<path class="st2" d="M10.9,81.4c0.1,0.6-0.5,1.5,0.2,1.7c0.7,0.2,1.7-0.4,2.1,0.4c0,0.2,0.1,0.5-0.2,0.5c-0.8-0.3-1.9-0.3-2.6,0.1
	c-0.7,0.4-1.5,1.1-1.8,1.9c-0.5,0.2-0.3-0.4-0.5-0.5c-0.1-0.2,0.1-0.3,0.2-0.4c0.2-0.8,1.1-0.9,1.3-1.6C9.1,83,8.9,84,8.3,84
	c-0.3,0.2-0.6,0.4-0.6,0.8c-0.1,0.1-0.2,0.2-0.4,0.2c0.1-0.7,0.5-1.3,1.1-1.7c0.4-0.1,1-0.1,1.3-0.1c0.2-0.4,0.5-1,0.6-1.6
	C10.5,81.4,10.8,81.1,10.9,81.4z"/>
<g>
	<g>
		<path d="M-20.4,52.5c0.6,0.7,1.5,0.8,2.2,1.1c0.1,0.4-0.3,0.8-0.4,1.2c-0.2,1.2,0.5,2.3,1.3,3c0.4,0.8-0.8,1.3-0.4,2.1
			c0.4-0.1,0.6-0.6,0.7-0.9c0.1-0.4-0.2-1.2,0.5-1.3c1.1,0.3,2.2-0.1,3-1c0-0.4,0.4-0.4,0.7-0.6c0.4,0,0.7,0.1,0.9,0.5
			c-0.1,1-0.9,1.8-0.6,2.8c0.4,0.6,0.6,1.1,1.2,1.6c0,0.3-0.2,0.5-0.4,0.7c-0.7,0.1-1,0.8-1.4,1.3c-0.6,0.9-0.6,2-0.6,3
			c-0.4,0.8-1.5,0.8-1.8,1.7c-0.3,0.7-0.5,1.5-0.6,2.4c-0.4,0.4-1.2,0.2-1.4,0.8c-0.5,0.7,0.6,2.1-0.8,2.1c-0.9,0.6-1.6,1.3-1.5,2.4
			c0.1,0.2,0.2,0.3,0.3,0.4c0.7,0,1.2-0.7,1.8-1c1-0.7,2-1.1,3-1.7c0.6-0.7,0.8-1.6,1.2-2.4c-0.4-0.7-0.7-1.6-0.3-2.4
			c0.1-0.6,0.9-0.9,0.7-1.6c0.1-0.2,0.3-0.3,0.1-0.5c0.1-0.7,0.8-1.2,1.4-1.6c0.6-0.2,1.4-0.2,2,0.1c0.9,0.5,1.1,1.6,1.2,2.5
			c0.7,0.3,1.3,1.1,1.5,1.8c0,0.5,0.1,1-0.2,1.5c-0.6,0.5-1,1.3-1.8,1.3c-1,0.3-1.4-0.9-2.3-0.4c-0.4,0.1-0.9,0.3-1,0.8
			c-0.1,0.1-0.1,0.4,0,0.5c0.6,0.6,1.5-0.6,2,0.3c-0.3,0.7-0.6,1.4-0.7,2.1c-0.3,0.4-0.9,0.3-1.3,0.5c-1.4,0.6-2.8,1-4,1.7
			c-1.4,1-2.9,1.9-4.2,3.1c-1.2,1.6-2.4,3.1-3.7,4.6c-0.5,0.8-0.9,1.7-1.4,2.5c-0.5,1.2-0.7,2.5-1.8,3.3c-0.2,0.1-0.4,0.1-0.6,0
			c-0.3-0.4-0.3-1.1-0.1-1.5c0-1.2-0.6-2.1-0.8-3.2c0.1-0.9-0.1-2.1,0.8-2.7c0.6-0.5,1.5-0.7,2-1.3c0.9-1.9,3.5-2.7,3.5-5
			c0-0.9,0.1-2.1-0.7-2.8c-0.6-1-1.7,0.3-2.3-0.5l-0.1-1.4l-0.7-0.9c-0.4-0.3-1-0.1-1.3-0.6c-0.1-0.7,0.9-1.2,0.1-1.8
			c-0.2-0.2,0-0.4-0.1-0.7c-0.3-0.6-0.8-1.1-1.6-1c-1.1-0.4,0-1.3-0.2-2.1c0-1.4-1.3-2-2.2-2.7c0-0.5,0.4-0.8,0.5-1.2
			c0.2-1.1,0.3-2.6-0.5-3.5c0-0.3,0.2-0.5,0.4-0.6c1.1,0.4,2.1,1.4,3.5,0.8c0.4,0,0.8-0.3,1.1,0.1c0.2,0.8,0.5,2,1.5,2.2
			c0.2,0,0.1-0.3,0.3-0.4c0.2-0.8-0.9-1.2-0.4-1.8c0.9-0.8,0.9-2.1,0.8-3.1c-0.1-0.6-0.7-1-0.5-1.6c0.5-0.6,1.5-0.2,1.8-1
			c0.5-0.4,0.4-1.1,0.9-1.6c0-0.1,0.1-0.3,0.3-0.3C-21,50.9-20.9,52.1-20.4,52.5z"/>
		<path class="st4" d="M-20.2,53.8c0.3,0.2,0.7,0.2,0.9,0.4c-0.4,1.4-0.1,2.9,1,3.8c0.2,0.6-0.3,1-0.4,1.5c-0.4,0.8-0.3,1.7,0,2.5
			c0.1,0.4,0.5,0.8,0.3,1.3c-0.6,0.9-0.9,2.5-0.4,3.5c-0.2,0.9-1.4,0.6-1.2,1.6c-0.3,1,0.2,1.9,0.1,2.9c-0.4,0.4-0.6,1-0.8,1.5
			c0,0.5,0.1,1,0.3,1.3c0.1,0.8-0.4,1.7,0.3,2.2c0.3,0.3,0.8,0.1,1.3,0.1c0.8-0.7,1.9-1,2.7-1.7c0.8-0.6,2-0.5,2.4-1.5
			c0.2-0.6,0.5-1.2,0.9-1.8l0.1,0c-0.3,0.5-0.3,1-0.3,1.6c0.4,0.4,1,0.4,1.5,0.5c0.2,0.3-0.1,0.6-0.1,1c-0.7,0.6-1.8,0.2-2.5,0.9
			c-0.7,0.4-1.5,0.6-2.2,1c-1.3,0.9-2.8,1.3-3.9,2.7c-0.9,0.3-1.2,1.3-1.8,1.9c-1,1-1.6,2.2-2.6,3.2c-0.1,0.4-0.4,0.7-0.7,1
			c-0.4,0.1-0.2-0.4-0.5-0.3c-0.2-0.3-0.5-0.7-0.9-0.7c-0.1-0.2,0-0.5,0-0.7c1.3-0.3,1.8-1.6,2.9-2.4l1.5-1.8c0.6-1.7,0.7-4-0.3-5.4
			c0.2-1.1-0.6-1.8-0.8-2.8c0.4-1.7-0.2-3.4-1.3-4.7c0.1-1.1,0.3-2.2,0.1-3.3c-0.4-0.7,0.3-1.3,0.6-2c0.4-0.9,0-1.8-0.1-2.6
			c0.4-0.8,0.8-1.7,0.9-2.7c0.2-0.7-0.5-1.1-0.4-1.8c0.6-0.2,0.8-0.8,1.5-1c0.1-0.3,0.4-0.5,0.5-0.6C-21.2,53.1-20.6,53.4-20.2,53.8
			z"/>
		<path d="M-20.8,57.4c0.2,1.7,0.4,3.4-0.1,5.1c0.1,1.6,0.5,3,0.5,4.5c0.3,0.7-0.2,1.2-0.3,1.9c0,0.8,0,1.7,0.1,2.5
			c-0.1,0.2-0.2,0.3-0.3,0.6c-0.2,0-0.4-0.2-0.5-0.4c-0.1-0.9-0.2-1.9-0.1-2.8c0.7-1.2-0.1-2.7,0.1-4c-0.7-1.9,0.3-4-0.2-6
			c-0.1-0.9-0.1-1.8-0.1-2.7c0.1-0.2,0.3-0.4,0.5-0.5C-20.5,55.8-21,56.8-20.8,57.4z"/>
		<path class="st4" d="M-13.4,59.5c0.1,0.6,0.2,1.2,0.6,1.7c0,0.5-0.5,0.6-0.7,0.9c-0.5,0.8-0.9,1.5-1.1,2.4l0,1.6
			c-0.5,0.4-0.9,1-1.4,1.3c-0.6,0.6-0.5,1.5-0.8,2.3c-0.3,0.5-0.9,0.4-1.3,0.8c-0.2,0.6-0.4,1.4-0.3,2c-0.2,0.6-1,0.5-1.4,1
			c-0.1,0-0.2-0.1-0.2-0.2c0.2-0.4,0.3-0.8,0.6-1.1c0-0.5,0.8-0.8,0.6-1.4c-0.3-0.7-0.4-1.7,0.1-2.5c0.3-0.7,1.6-0.8,1.2-1.8
			c-0.4-0.4,0.1-0.9,0.3-1.3c0.6-0.7,1.1-1.3,1.6-2.1c0.2-0.7,0.4-1.4,0.9-2c0.2-0.3,0.4-0.6,0.4-0.9c-0.1-0.2-0.3-0.3-0.5-0.3
			c-0.9,1.7-1.7,3.5-3,5.1c-0.5-1,1.1-1.3,0.5-2.3c0-0.5-0.3-0.9-0.2-1.4c0.6-0.7,1.4-1.4,1.5-2.4C-15.3,59.1-13.4,57.6-13.4,59.5z"
			/>
		<path class="st4" d="M-27.8,60c0.6,0.9,1.5,1.4,2.2,2.3c0.1,0.6-0.2,1.3,0.3,1.8c-0.1,0.3,0.2,0.5,0,0.7l-0.3,0
			c-0.8-1-1.5-2.1-2-3.2c-0.2-0.2-0.5-0.2-0.7-0.1c-0.2,0.4,0,0.8,0.2,1.2c0.5,0.9,0.5,2.1,1.4,2.7c0.3,0.6,1.3,1,0.9,1.7
			c-0.2,0.7,0.7,0.7,1,1.2c0.5,0.8,1,1.7,0.7,2.7c-0.1,0.3-0.2,0.6-0.1,0.9c0.5,0.4,1.2,1,1.2,1.6c-0.5,0-1,0.4-1.4-0.1
			c-0.3-0.9-0.6-2-1.6-2.4c-0.7-0.6,0.1-1.4-0.3-2.1c-0.4-0.8-1.1-1.6-1.9-1.8c-0.3-0.4,0.1-0.8-0.1-1.2c0.2-1.4-1.1-2.4-1.9-3.2
			c0-0.3,0.3-0.3,0.3-0.6c0.5-0.8-0.1-1.6,0.2-2.5l0.1-0.1C-29,59.7-28.3,59.5-27.8,60z"/>
		<path class="st2" d="M-9.8,66c0.3,0.3,0.2,0.8,0.1,1.1c-0.1,0.2-0.2,0.2-0.3,0.4c-0.7-0.2-1.5-0.3-2.1-0.5c0-0.5,0.2-1.1,0.7-1.3
			C-10.8,65.6-10.2,65.5-9.8,66z"/>
		<path class="st2" d="M-10.3,68.8c0.1,0.5,0.3,1.1,0.1,1.6c-0.3,0.4-0.8,0.7-1.4,0.6c-0.6,0.1-0.7-0.4-1-0.7
			c-0.1-0.6-0.4-1.6,0.2-2.2c0.4-0.5,1-0.1,1.4,0C-10.7,68.3-10.5,68.5-10.3,68.8z"/>
		<path class="st2" d="M-8,68.6c0.3,0.4,0.2,1,0.3,1.5c-0.1,0.3-0.3,0.8-0.7,0.9c-0.3,0.2-0.5,0.3-0.9,0.3c-0.4-0.6,0.1-1.6-0.2-2.2
			c0.1-0.3-0.1-0.7,0.2-0.8C-8.7,68.1-8.3,68.3-8,68.6z"/>
	</g>
	<path class="st4" d="M-26.2,85.8l0.2,0.3c-0.1,0.7,0.1,1.7-0.6,2.2c-0.8-0.2-0.9-1.1-1.1-1.7c-0.1-0.5-0.2-1.3,0.2-1.7
		C-26.8,84.9-26.7,85.7-26.2,85.8z"/>
</g>
<path class="st4" d="M49.5,85.6c0,0.5-0.1,1.1,0,1.7c-0.2,0.2-0.1,0.7-0.3,1c0.1,0.6-0.2,1.2-0.5,1.7h-0.1c-0.5-0.8-0.4-1.9-0.2-2.9
	c0-0.6,0.2-1.2,0.4-1.8C49,85.1,49.5,85.2,49.5,85.6z"/>
<path class="st5" d="M-12.6,86.7c0.2,0.1,0.5,0.2,0.5,0.5c0,0.4-0.8,1.3,0.2,1.4c0.5,0.1,1.1-0.1,1.7-0.1c0.8,0.1,1.5,0.5,2.3,0.6
	c0.2,0.4,0.8,0.3,1.1,0.6C-7,89.8-6.8,90-6.6,90c0.7-0.1,1.5,0.2,2.1-0.2c0.4,0,0.6-0.2,1-0.3c0.8-0.1,1.2-0.6,2-0.6
	c0.1-0.1,0.3-0.2,0.5-0.1c0.3,0.7-0.7,1-0.7,1.6c-0.2,0.4-0.7,0.7-0.8,1.1c0.4,0.3,1.2-0.1,1.3,0.6c0.1,0.4-0.3,0.7,0,1
	c-0.1,0.5,0,1,0.6,1c0.8,0.2,1.5,0.7,2.4,0.8c0.6,0.5,1.4-0.3,1.9,0.3c-0.6,0.4-0.8,1.4-1.9,1.3c-0.2,0.1-0.5,0.4-0.4,0.7
	c0.1,0.1,0.3,0.2,0.5,0.2v0.3c-0.8,0.4-2-0.4-2.6,0.5c-0.7,0.5-1.4,0-2.1-0.1c-0.7-0.5-1.7-0.2-2.6-0.2c-0.3,0.2-0.5,0.6-0.9,0.5
	c-0.5,0-0.9-0.3-1.3-0.1C-8,98.6-8.4,99-8.2,99.5c0.3,0.4,0.8,0.1,1.1,0.3c0.4,0.2,0.8,0.4,1,0.8c0.1,0.7,0,1.4-0.5,1.9
	c-0.2,0.1-0.4-0.1-0.4-0.3c-0.8-0.4-1.8-0.5-2.6-0.2c-0.7,0.4-1.3,1-1.7,1.6c-0.4,0.4,0,1.1-0.5,1.4c-0.5-0.2-0.7-0.8-1.1-1.1
	c-0.2-0.5-0.1-1.2,0.2-1.6c0-0.1-0.1-0.2-0.1-0.3c-0.6,0.2-0.9,0.8-1.4,1.1c-0.3,0.2-0.3,0.7-0.7,0.9c-0.6-0.3-0.8-1-0.9-1.7
	c-0.2-0.2-0.4-0.1-0.7-0.2c-0.1-0.4-0.5-0.8-0.2-1.2c0.1-0.6,0.3-1.3,0.9-1.6c0.8-0.3,1.6,0.1,2.3,0.2c0.5-0.2,1.2-0.2,1.6-0.7
	c0.5-0.8,0.5-1.6,0.7-2.6c-0.5-0.4-1.3-0.5-1.9-0.7c-0.1-0.3-0.3-0.3-0.5-0.3l-1-0.7c-0.2-0.4-0.4-1-0.9-1.1
	c-0.1-0.2-0.5-0.2-0.6-0.5c-0.8-0.5-0.9-1.6-1.1-2.4c-0.5-0.7-1.4-0.5-2-0.8c-0.2,0.1-0.5-0.1-0.5-0.2c0.3-1,1.4-0.8,2.1-1.4
	c0.3-0.4,0.5-0.9,1-1.2v-0.1c0.9-0.1,1.8-0.2,2.7,0.1C-13.6,86.7-13,87-12.6,86.7z"/>
<path class="st5" d="M30.6,87c0.3-0.1,0.7,0,0.8,0.3c0.1,0.6-0.5,0.9-0.5,1.4l0.5,0.3l2.6-0.3c0.7,0.1,1.2,0.5,1.8,0.7
	c0.2,0.8,1.3,0.9,2,1.4c0.7,0,1.4-0.1,2-0.4c0.5-0.2,0.8-1,1.4-0.9c0.3,0.3,0.3,0.8,0.2,1.2c0,0.6-1.2,1-0.5,1.5
	c0.4,0.2,0.9-0.1,1.1,0.4c-0.2,0.5-0.7,0.5-1.1,0.8c0.1,0.4,0.6,0.6,0.9,0.7c1.1,0.4,2.2,0.8,3.5,0.8c0.2,0,0.6-0.1,0.8,0
	c0.2,0.1,0.1,0.4,0.1,0.6c-0.2,0.6-0.8,1-1.4,1.2c0,0.4-0.1,0.7-0.4,0.8c-0.4,0-0.4,0.3-0.7,0.4c-0.8-0.1-1.1,0.7-1.9,0.8
	c-1.5,0.2-2.7-0.6-3.9-1.2c-0.3,0-0.9-0.1-1,0.2c0,0.3,0.4,0.5,0.2,0.8c-0.5,0.6-1.4-0.1-1.9,0.6c0,0.5-0.5,0.8-0.2,1.3
	c0.6,0.4,1.6,0,2.1,0.4c0.3,0.1,0.4,0.3,0.5,0.6c0.1,0.2,0.1,0.5-0.1,0.5c0.1,0.5-0.2,0.8-0.4,1.1c-0.9,0.4-0.9-1.1-1.8-0.8
	c-0.6,0.2-1.3-0.2-1.7,0.3c-0.3,0.8-1.4,1.1-1.4,2.1c-0.1,0.1-0.1,0.4-0.3,0.4c-0.6,0-0.7-0.6-1.1-0.9l-0.2-1
	c-0.2-0.1-0.4,0.2-0.4,0.3c0,0.2-0.2,0.4-0.5,0.4c-0.5,0-0.7-0.7-1.1-0.8c-0.3-0.2-0.3-0.5-0.2-0.8c-0.3-0.1-0.7-0.1-0.8-0.3
	c-0.2-0.5-0.4-1.3,0-1.8c0.4-0.4,0.9-0.6,1.4-0.6c0.5,0.4,1.1,0.3,1.7,0.2c1-0.5,0.9-1.7,0.9-2.7c0.2-0.3,0.4-0.7,0.2-1
	c-0.8-0.5-1.9-0.7-2.7-1.2c-0.9-0.6-0.9-1.7-1.8-2.2C26.5,92,26,90.8,25,90.5c-0.6-0.2-1.3,0-2-0.2c-0.2-0.6,0.1-1,0.5-1.4
	c0.6-0.4,1.5-0.5,1.8-1.4c1.1-1.1,3-1.1,4.4-0.6L30.6,87z"/>
<path class="st0" d="M-13.5,87.6c0.4,0.3-0.1,0.5-0.1,0.8c0.8,0.6,1.7,1.2,2.7,1c1.4-0.3,2.7,0.7,3.9,1.4c1,0.6,2,1.3,3.2,1.4
	l0.7,0.2c0,0.2-0.3,0.3-0.4,0.3l-1.5,0c-0.7-0.1-1.3-0.7-2-0.5c-0.2,0.1,0,0.3,0.1,0.5l1.1,0.7L-6,93.5c-1.2,0.2-2-0.7-3-0.8
	c-0.2,0.1-0.2,0.3-0.1,0.5c0.1,0.2,0.4,0.2,0.3,0.4c-0.6,0.3-1.2-0.1-1.7-0.3l-1.5-0.6l-1.2-1.3c-0.2-0.1-0.5,0-0.6,0.2
	c0,0.9,1,1.3,1.6,1.7c0.9,1,2.3,1,3.6,1.3c1.3,0.3,3-0.9,4,0.5c-0.2,0.4-0.6,0.6-1,0.9c-0.5,0.1-1.1-0.4-1.4,0.3
	c-0.2,0.4,0.2,1-0.2,1.1c-0.5-0.3-1.3-0.2-1.6-0.8c-0.4-1.5-2.1-1.2-3.3-1.6c-1-0.2-2.1-1.1-2.3-2.1c-0.4-0.4-1-0.6-1.3-1.1
	c-0.4-0.7-0.2-1.7-1.1-2.1c0.1-0.3-0.2-0.4-0.2-0.7c-0.4-0.8,0.5-1.1,0.7-1.6C-15.5,86.9-14.6,87.5-13.5,87.6z"/>
<path class="st0" d="M30.3,87.8c-0.1,0.4-0.5,0.7-0.3,1.1c0.6,0.4,1.1,1.1,1.9,0.9c0.6-0.5,1.4,0,2.1-0.2c1.1,0.4,2,1,3,1.6
	c1,0.6,2,1.1,3,1.6c-0.1,0.2-0.4,0.2-0.6,0.3c-1.2-0.2-2.6-0.2-3.7-0.6c-0.2,0.1-0.2,0.3-0.1,0.4c0.5,0.4,1.3,0.4,1.9,0.7
	c-0.1,0.2-0.4,0.4-0.6,0.4c-0.2,0.1-0.5-0.1-0.7,0.1c-0.6-0.1-1-0.5-1.6-0.6c-0.2,0.1-0.2,0.4-0.2,0.7c-1.7-0.3-3.5-1.4-4.3-3
	c-0.1-0.2-0.3-0.3-0.5-0.2c-0.4,0.8,0.4,1.4,0.7,1.9c1.5,1.3,3.1,2.2,5.2,2.1c0.8-0.5,1.8-0.4,2.7-0.3c0.2,0.1,0.4,0.1,0.5,0.3
	c-0.4,1-1.5,1-2.4,1.2l-0.6,0.6c-0.2,0.5,0.9,1.2-0.1,1.2c-0.4,0.1-0.6-0.1-0.9-0.2c-0.4,0.1-1,0.3-1.3-0.1c0.1-0.6,0.5-1.1,0.2-1.8
	c-0.9-1.1-2.6-0.6-3.6-1.4c-1-0.5-1.4-1.6-2.2-2.4c-0.5-0.6-1-1.3-1.6-1.9c0-0.8-0.5-1.7,0-2.4c0.2,0,0.2-0.3,0.4-0.4l1.1-0.3
	C28.7,87.3,29.5,87.6,30.3,87.8z"/>
<path d="M-14.9,88.2c0.2,0.4,0,0.8-0.2,1.1c-0.2,0.2-0.6,0.2-0.8,0.1c-0.4-0.2-0.5-0.7-0.5-1c0.1-0.2,0.2-0.5,0.4-0.6
	C-15.6,87.8-15.2,87.9-14.9,88.2z"/>
<path d="M28.5,88.4c0.3,0.2,0.1,0.5,0.1,0.8c-0.2,0.4-0.7,0.6-1.1,0.4c-0.3-0.1-0.5-0.4-0.8-0.3c0.3-0.4-0.1-1.4,0.8-1.4
	C27.9,87.8,28.2,88.2,28.5,88.4z"/>
<path class="st2" d="M-17.8,89.5c-0.5,0.1-0.8-0.3-1.2-0.3c0.4-0.3,0.9-0.3,1.3-0.5C-17.9,88.9-17.6,89.2-17.8,89.5z"/>
<path class="st2" d="M25.4,90c-0.6,0-1.3-0.2-1.9-0.1c0.1-0.4,0.6-0.5,0.9-0.7l0.9-0.4C25.2,89.2,25.6,89.7,25.4,90z"/>
<path class="st0" d="M-3,90.4c-0.1,0.6-0.8,0.8-1.3,0.9C-4.6,91.1-5,91.2-5,90.9c0.3-0.6,1.1-0.2,1.7-0.5C-3.2,90.3-3.2,90.5-3,90.4
	z"/>
<path class="st0" d="M40.5,91c0,0.3-0.3,0.5-0.5,0.8c-0.4,0.3-0.8,0-1.1-0.2c0-0.2,0.3-0.3,0.5-0.4C39.8,91.1,40.1,91,40.5,91z"/>
<path class="st0" d="M-1,94.7c0.8,0.4,1.7,0.5,2.5,0.8c-0.2,0.3-0.7,0.2-1.1,0.3c-1.6-0.1-2.9-0.7-4.2-1.4c-0.2,0-0.5-0.1-0.5-0.4
	c0.1-0.3,0.4-0.4,0.7-0.5C-2.5,93.4-2,94.6-1,94.7z"/>
<path d="M11.7,94.3l0.1,0.6c0.7,0.8,1.2,1.7,2.1,2.4c0.3,0.2,0.8,0.3,0.8,0.7c-0.1,0.8-0.6,1.4-0.4,2.3c0.1,0.8,0.5,1.5,1.2,2
	c0.1,0.6-0.6,0.9-0.4,1.4c0.2-0.1,0.5-0.4,0.5-0.8c0-0.4-0.1-0.9,0.3-1c1.5,0.3,2.7-0.2,3.8-1.1c0.3-0.1,0.5,0.1,0.6,0.3
	c0.1,1.1-1,2.4,0,3.5c0.1,0.4,0.8,0.7,0.5,1.2c-0.8,0.6-1.8,1.5-1.5,2.7c0,0.5,0.6,1,0.2,1.5c-0.7,0.4-1.6,0.7-1.9,1.5
	c-0.1,0.7-0.4,1.4-0.2,2.1c0.1,0.3,0.5,1-0.1,1.1c-0.7,0.1-1.3,0.3-1.7,0.9c-0.2,0.8-0.4,1.6-0.4,2.4c-0.8,0.6-2.3,0.8-2.5,2.1
	c-0.1,0.4,0,1.1,0.6,1.1c1.4,0.6,2.9,1.1,4.4,1.4c0.7,0.1,1.5-0.4,2.2,0.1c0.7,0.7,1.1,1.6,1.3,2.5c-0.1,0.7,0,1.5-0.2,2.1
	c0.1,0.2,0,0.4-0.1,0.6c-0.8,0.5-1.2-0.7-1.9-0.9c-0.7-0.2-1.2-0.8-1.9-1l-0.2,0.1c-2.3-0.9-4.7-1.6-7.4-1.5C8,125,6.4,125,5,125.6
	c-1,0.7-1.6-0.4-2.4-0.8c-0.1-0.3-0.4-0.5-0.2-0.9c0.6-0.7,1.4-0.8,2.2-1.1c0.3-0.2,0.1-0.6-0.1-0.8c-0.4-0.4-0.6-0.9-1.1-1.1
	c-0.7,0.2-1.5,0.1-2.1-0.3c-0.8,0.2-1.9,0.3-2.5-0.2c-0.9-0.8-1.6-1.9-1.1-3.2c0.3-0.8,1.1-1.3,1.9-1.4c0.4-0.3,0.3-0.9,0.6-1.2
	c0.6-0.7,1.3-1.4,2.4-1.2c0.6,0.3,1.3,0.4,1.8,1c0.2,0.1,0.4-0.1,0.4-0.2c0-1.3-0.5-2.5-1.7-3.2c-0.5-0.3-1.2-0.1-1.4-0.7
	c0.1-0.6,0.7-0.9,0.6-1.5c0.1-0.8,0.4-2.2-0.4-2.7c-0.4-0.1-0.7-0.3-0.9-0.7c0.2-0.9,1.1-1.4,1-2.4c0.3-0.8-1.1-1.4-0.1-2
	c0.8,0,1.3,0.8,2.2,0.7c0.6,0,1.2-0.1,1.7-0.3c0.8,0,0.4,1.1,0.8,1.5c0.1,0.4,0.4,0.9,0.8,1.1c0.2,0,0.3-0.2,0.3-0.3
	c0.1-0.7-0.8-1-0.8-1.6c0.9-0.8,1.4-2.1,1.1-3.4c-0.1-0.3-0.5-0.6-0.2-1c0.7-0.3,1.4-0.7,1.9-1.3c0.5-0.7,0.9-1.5,1.1-2.3
	C11,93.6,11.6,93.9,11.7,94.3z"/>
<path class="st0" d="M42.4,95.1c0.8,0.3,1.8,0.5,2.7,0.6c-1.3,1.1-2.8,0-4.1-0.2c-0.7-0.3-1.5-0.6-2.1-1.2c0-0.2,0.3-0.4,0.5-0.5
	C40.6,93.9,41.4,94.8,42.4,95.1z"/>
<path class="st0" d="M-1.6,96l1.3,0.6c-0.2,0.4-0.8,0.1-1.2,0.2c-0.7-0.1-1.3-0.5-2-0.7c-0.2-0.2-0.4-0.3-0.3-0.6
	c0.2-0.2,0.5,0,0.8,0C-2.6,95.8-2.1,95.9-1.6,96z"/>
<path class="st4" d="M13.6,98.3c-0.1,0.5-0.2,1.1-0.4,1.5c0.1,1,0.7,1.9,1.3,2.7c0.1,1-0.7,1.6-0.4,2.7H14c-0.1,1.1,0.6,1.9,0.5,3
	c-0.5,1-1.2,2.5-0.4,3.6c-0.2,0.9-1.4,1.6-1,2.8c0.1,0.4,0.2,0.8,0.1,1.2c-0.5,0.2-1,0.7-1.1,1.2c0.1,1.1,0.2,2.2-0.2,3.2
	c0,0.4-0.3,0.7-0.1,1.2c0.2,0.5,0.7,0.8,1.2,0.9c1.7,0.5,3.3,1.2,5.1,1.6c0,0.7,0.5,1.2,0.5,1.9c-0.8,0-1.3-0.4-2-0.7
	c-0.9-0.2-1.8-0.6-2.7-0.8l-2.8-0.2l-0.1-0.1L9,123.7l-0.2,0.1c-1,0.1-2,0.1-2.8,0.4c-0.7,0.2-1.6,0.8-2.2,0.2
	c0-0.2-0.2-0.2-0.2-0.4c0.5-0.4,1.1-0.3,1.6-0.6c0.4-0.1,0.3-0.6,0.2-0.8c-0.2-0.6-0.8-1.1-1-1.7c0.2-0.1,0.4-0.3,0.5-0.4
	c0.9,0.4,0.8,1.5,1.7,1.9c0.8,0.1,1.8,0.4,2.4-0.1c0.4,0,0.8-0.3,0.8-0.7l0.1-0.5c0.4,0,0.8,0.1,1-0.3c0.4-0.5,0-1.1,0.2-1.7
	c0.2-1.3-0.7-2.4-1.5-3.3c-0.4-1.3-0.1-2.9-1-4c-0.5-0.3-0.6-0.7-0.7-1.2c0.4-1,0.5-2.4,0-3.2l0-0.8c0.6-0.7,0.8-1.8,0.6-2.7
	c0.1-0.8-0.7-1.5-0.3-2.2c0.5-0.7,1-1.4,1-2.4c0-0.5-0.3-0.9-0.1-1.3c0.9-0.5,1.5-1.3,1.9-2.2c0.2-0.3,0.4,0,0.5,0.2
	C11.9,97.1,12.9,97.7,13.6,98.3z"/>
<path class="st0" d="M43.4,97c0.1,0.2-0.2,0.5-0.4,0.5c-1,0.3-1.6-0.4-2.5-0.6l-1.1-0.6c-0.1-0.2,0.2-0.4,0.4-0.4
	C41.1,95.8,42.1,96.9,43.4,97z"/>
<path class="st0" d="M33.1,96.6c0,0.3,0,0.8-0.4,0.9c-0.2,0-0.6,0.1-0.5-0.3c0.2-0.3-0.1-0.8,0.3-1C32.8,96.1,33,96.3,33.1,96.6z"/>
<path class="st2" d="M-10,96.6c-0.1,0.8-0.6,1.5-0.8,2.3c-0.3,0.2-0.3,0.5-0.5,0.7c-0.6,0-1.1,0.1-1.5,0.6c-0.6,0.2-0.8,0.9-1.1,1.4
	c-0.4,0.4-0.9,0.5-1.3,0.8c0-0.2-0.2-0.5-0.1-0.7c0.5-0.4,1.2-0.6,1.5-1.3c0-0.3-0.2-0.3-0.4-0.2c-0.4,0.2-0.7,0.6-1.3,0.7
	c-0.3,0.1-0.4,0.4-0.7,0.4c-0.2-0.5,0.2-0.8,0.4-1.2c0.7-0.4,1.4,0,2.1-0.1c0.3-0.2,0.6,0.1,1-0.1c1.4-0.7,1.6-2.2,1.9-3.6
	C-10.5,96-10,96.3-10,96.6z"/>
<path class="st0" d="M-3,97c0.5-0.1,0.7,0.4,1.1,0.5c-1.1,0.2-2-0.5-2.9-1.1c0.2-0.3,0.5,0.1,0.8,0.1L-3,97z"/>
<path class="st0" d="M-5.5,96.9c0.1,0.2-0.2,0.2-0.3,0.2c-0.3,0-0.6,0-0.7-0.3c-0.1-0.2,0.1-0.3,0.2-0.4C-6,96.4-5.7,96.6-5.5,96.9z
	"/>
<path class="st0" d="M39.8,97.2c0.4,0.3,1,0.4,1.4,0.7v0.1c-1,0-2.2-0.3-3-1.1c-0.1-0.1,0.1-0.2,0.2-0.2
	C38.9,96.6,39.2,97.1,39.8,97.2z"/>
<path class="st2" d="M-8.4,98.1c-0.2,0.7-0.5,1.3-0.4,2.1c0.7,0,1.5-0.1,1.9,0.6c0,0.2,0.1,0.4-0.2,0.5c-0.3,0.1-0.5-0.2-0.8-0.3
	c-0.8,0.2-2-0.3-2.7,0.5c-0.5,0.7-1.4,1.4-1.8,2.1c-0.2-0.1-0.3-0.2-0.3-0.4c0.3-1,1.3-1.8,2-2.5c0-0.2-0.1-0.3-0.2-0.4
	c-0.8,0.1-1.3,0.9-2,1.2c-0.2-0.2-0.1-0.5,0-0.7c0.5-0.6,1.3-0.5,2-0.7c0.3,0,0.6,0.3,0.9,0.1c0.3-0.7,0.5-1.4,0.8-2.1
	C-8.8,97.7-8.3,97.8-8.4,98.1z"/>
<path class="st2" d="M32.4,98.6c0.2,0.5-0.1,1-0.1,1.6c-0.6,0.1-1.1,0.7-1.7,0.7c-0.8,0.5-1,1.4-0.9,2.3l0,0
	c-0.2,0.1-0.2-0.3-0.5-0.2c-0.2-0.6-0.5-1.5,0.1-2c0-0.1-0.2-0.2-0.1-0.3c-0.6-0.3-0.7,0.3-0.9,0.7h0c-0.1,0.1,0.2,0.4-0.1,0.5
	c-0.3,0-0.4-0.3-0.5-0.5c-0.1-0.6,0.6-0.6,1-0.9c0.2,0.2,0.7,0,0.9,0.2c0.6-0.2,1.8,0.2,1.9-0.8c0.4-0.5,0.4-1.1,0.7-1.6
	C32.5,98.1,32.2,98.4,32.4,98.6z"/>
<path class="st1" d="M-9.7,98.3c0,0.4-0.1,0.8-0.5,1c-0.2-0.1,0-0.3,0.1-0.5C-10,98.7-10,98.3-9.7,98.3z"/>
<path class="st1" d="M33.4,99.7c-0.1,0.2-0.3,0.2-0.5,0.2c-0.3-0.2,0-0.5,0-0.7c0.1-0.3,0.4-0.3,0.6-0.4
	C33.7,99,33.5,99.4,33.4,99.7z"/>
<path class="st2" d="M34.5,99.2c-0.3,0.3-0.2,0.7-0.2,1.1c-0.1,0.2,0.1,0.5,0.4,0.7c0.8,0.4,2-0.3,2.5,0.7l0,0.6
	c-0.6-0.1-1.1-0.4-1.7-0.6c-0.7,0.1-1.5-0.2-2,0.2c-0.5,0.8-1.4,1.2-1.7,2.1c-0.4-0.1-0.2-0.6-0.2-0.8c0.3-1,1.5-1.1,2.1-1.9
	c-0.1-0.2,0.3-0.4,0-0.5c-0.2-0.1-0.4,0.1-0.5,0.2c-0.1,0.5-0.7,0.4-1.1,0.7c-0.5,0.1-0.6,1.2-1.1,0.6c0.2-0.1,0.1-0.5,0.2-0.7
	c0.5-0.5,1.2-0.7,1.9-0.9v0c0.2-0.3,0.7,0.1,0.9-0.3c0-0.5,0.2-0.9,0.4-1.3C34.3,99.1,34.5,99.1,34.5,99.2z"/>
<path d="M11.5,100.2l-0.1,1.2c0.2,1.2-0.3,2.5,0.2,3.6c0.2,1,0.3,2.2,0,3.2c-0.2,1.1-0.2,2.4,0.2,3.4c0.2,0.4,0.2,0.8,0.4,1.3
	c0.2,0.8,0,1.6,0,2.4c-0.1,0.2-0.2,0.4-0.5,0.3c-0.6-0.1-0.3-0.9-0.3-1.3c0.1-1-0.6-1.8-0.7-2.8c-0.5-1.9,0.3-3.6,0.1-5.4
	c-0.1-1.3-0.5-2.7-0.4-3.9c0.1-0.7-0.1-1.7,0.4-2.2C11.1,99.8,11.5,99.9,11.5,100.2z"/>
<path class="st4" d="M5.6,102.8c0,1,0.8,1.8,1.6,2.2c0.2,0.3,0.1,0.7-0.1,1c-0.3,0.2-0.5,0.7-0.7,1c-0.2,0.5,0.5,0.8,0.7,1.2l0,0.8
	H6.9c-1-1.6-2.2-3-2.2-5c-0.3-0.2-0.5-0.8-0.9-0.5c-0.5,0.5-0.1,1.1,0.1,1.6c0.6,1.7,1.4,3.1,2.3,4.6c0.2,0.6,1,1.1,0.5,1.8
	c-0.1,0.2-0.1,0.4-0.1,0.6c0.7,0.3,1.6,0.9,1.8,1.7c0.2,0.8,0.1,1.8,0.3,2.6c1.3,0.9,1.5,2.3,1.6,3.7c-0.4-0.6-0.6-1.6-1.5-2
	c-0.8-0.1-0.5-1-0.7-1.6L7.4,115c-0.5-0.4-1.1-0.9-1.8-1c0-0.3-0.1-0.7,0.1-0.9c-0.1-1.3-1-2.4-2.1-2.9c-0.9-0.3-0.2-1.1-0.2-1.6
	c0-0.4-0.1-0.8,0.1-1.2l-0.2-1.1c-0.3-0.5-1.2-1-0.9-1.7c0.3-0.7,0.5-1.4,0.5-2.2l0.8,0.1C4.2,102.5,5.3,102,5.6,102.8z"/>
<path class="st4" d="M19,103c-0.1,1,0.4,1.7,0.7,2.5c-0.2,0.4-0.6,0.5-0.8,1c-0.2,0.8-0.6,1.6-0.4,2.5c0.1,0.5-0.1,0.8-0.6,0.8
	c-1.1,1.1-1.6,2.5-1.4,4.2c-0.6,0.4-1.1,0.6-1.6,1.1c-0.3,0.8-0.5,1.6-0.6,2.5c-0.5,0.2-0.7,0.8-1.3,1c-0.4-1.3,0.7-2,1.4-2.8
	c-0.2-0.7-0.2-1.4-0.1-2.2c0.2-0.7,1.7-0.9,1-1.7c-0.5-0.5-0.2-1.1-0.4-1.8l0.2-0.6c1.1-1.6,2.2-3,3.2-4.6c0-0.2-0.1-0.4-0.3-0.5
	c-0.7-0.3-0.7,0.6-1,0.9c-0.4,0.9-1,1.7-1.5,2.5h-0.1c-0.1-0.9-0.7-1.9-0.2-2.7c0.7-0.5,1.3-1.1,1.3-1.9c0.2-0.1,0.6-0.1,0.8-0.2
	C17.9,102.7,18.7,102.4,19,103z"/>
<path class="st2" d="M3.5,114.7c0.1,0.2,0.2,0.4,0.3,0.5c0.3,1.2-1,0.6-1.6,1c-0.2,0.2-0.7,0.1-0.9,0.1c-0.1-0.2-0.6,0-0.6-0.4
	c-0.1-0.5,0.1-0.9,0.4-1.2C1.7,114.1,2.9,114.2,3.5,114.7z"/>
<path class="st0" d="M6.7,115.7c0.3,0.7,0.7,1.5,0.5,2.4c0,0.3,0.3,0.5,0.5,0.6c0.4,0,0.7,0.1,0.9,0.3c0.5,0.5,0.5,1.2,0.6,1.9
	c-0.4,0.7-1.3,0.7-1.9,0.7c-1-0.4-1.4-1.4-2.1-2.2c0.1-1,0-2-0.7-2.8c0.3-0.5,0-1.4,0.6-1.6C5.9,114.9,6.4,115.2,6.7,115.7z"/>
<path class="st2" d="M1,117.2c0.1,0.5-0.2,0.8-0.3,1.3c-0.1,0.5,0,1.1-0.4,1.4c-0.5,0.1-0.9,0-1.3-0.2c-0.6-0.5-0.5-1.3-0.4-2.1
	c0.2-0.3,0.4-0.6,0.8-0.7C-0.1,116.9,0.9,116.4,1,117.2z"/>
<path class="st2" d="M4.1,117.4c0.3,0.7,0.3,1.7,0,2.3c-0.4,0.6-1.1,0.4-1.6,0.4c-0.4,0-0.7-0.3-1-0.4c-0.2-0.9-0.2-2,0.6-2.5
	C2.8,117.2,3.7,116.8,4.1,117.4z"/>
<path class="st4" d="M20.2,125.7l0.1,0.7c-0.3,0-0.6-0.2-0.6-0.5c-0.3-0.6-0.6-1.3-0.6-2c0.1-0.1,0.3-0.2,0.5-0.1
	C20.2,124.2,19.9,125.1,20.2,125.7z"/>
<line class="st6" x1="-38.6" y1="49.4" x2="60.5" y2="49.4"/>
<polyline class="st7" points="-28.8,94.8 10.9,56.1 50,95.9 "/>
<polyline class="st7" points="-14.6,116.1 11.1,90 36.6,115.8 "/>
<path class="st6" d="M-38.8,17.8v39.8c0,48.9,48.8,80,49.3,80.3c0,0,0.2,0.1,0.2,0.1c0.1,0,0.4-0.2,0.4-0.2
	c8.3-5.4,49.7-34.9,49.7-80l0-40.1H-38.8z"/>
<path class="st2" d="M11,56.3"/>
</svg>
